<?xml version="1.0" standalone="no"?>
<?xml-stylesheet type="text/css" href="../css/main.css"?>
<svg id="Layer_1" data-name="Layer 1" xmlns="http://www.w3.org/2000/svg" viewBox="0 0 1175 615.1"><defs></defs><title>deco_frame</title><g id="deco"><path class="cls-2" stroke="#fff" stroke-width="1" d="M604.5,538.2v-7.7c0-3.5,3.3-7.2,6.1-6.8-.6-1.9-2.2-3.8-3.4-2.8s-2.3-2.8-6.2-3.7c-3.9.9-5.1,5.6-6.8,4.2s-2.8.5-3.4,2.3c2.8-.5,6.1,3.3,6.1,6.8v7.7Z" transform="translate(-13.2 -9.3)"/><path class="cls-2" stroke="#fff" stroke-width="1" d="M611.2,538.2s1.1-4.9,11.6-6.9c5.3-1.4-2.1-2.8-4.2-2.8,0-.7-3.2,2.1-4.2,3.5s2-5,4.2-5.5c5.3-1.4.8-3.4-1.1-2.8-6.3,2.1-9.5,5.5-9.5,14.5Z" transform="translate(-13.2 -9.3)"/><path class="cls-2" stroke="#fff" stroke-width="1" d="M613.3,601.3c4,7.7,8.4,0,8.4,0s4.2,10,6.3,12.1,6.3,4,8.4-6c5.3,3,17.9,2,18.9-3s-7.4-3-11.6-5c-21-6-30.5-34.2-30.5-34.2s3.2,9,8.4,2c1.4-1.8-10.5-12.1-10.5-12.1v-8h-3.2v6C608.1,574.2,610.2,595.3,613.3,601.3Zm-1.1-30.1c.3-.1,1,2.6,2.7,6.7a49.5,49.5,0,0,0,9.2,14.4,44.4,44.4,0,0,0,13.9,9.9c4,1.8,6.7,2.4,6.7,2.6s-2.9.1-7.2-1.5a38.2,38.2,0,0,1-8.2-4.4h0a34.6,34.6,0,0,0,.4,3.7c.4,2.9.9,5.2.6,5.3s-1.2-2.2-1.6-5.1a13.4,13.4,0,0,1-.1-3.9v-.4a39.4,39.4,0,0,1-5.8-5.1,41.7,41.7,0,0,1-6.4-9c.1,1.1,0,3.7.2,6.8s1,7.3.7,7.4-1.4-3.1-1.7-7.3a18.7,18.7,0,0,1,.6-7.3,43.6,43.6,0,0,1-2.4-5.6C612.4,574.1,612.1,571.3,612.3,571.2Z" transform="translate(-13.2 -9.3)"/><path class="cls-2" stroke="#fff" stroke-width="1" d="M588.3,538.2s-1.1-4.9-11.6-6.9c-5.3-1.4,2.1-2.8,4.2-2.8,0-.7,3.2,2.1,4.2,3.5s-2-5-4.2-5.5c-5.3-1.4-.8-3.4,1.1-2.8,6.3,2.1,9.5,5.5,9.5,14.5Z" transform="translate(-13.2 -9.3)"/><path class="cls-2" stroke="#fff" stroke-width="1" d="M591.4,553.1v-6h-3.2v8s-11.9,10.2-10.5,12.1c5.3,7,8.4-2,8.4-2s-9.5,28.1-30.5,34.2c-4.2,2-12.5.6-11.6,5s13.7,6,18.9,3c2.1,10,6.3,8,8.4,6s6.3-12.1,6.3-12.1,4.4,7.7,8.4,0C589.3,595.3,591.4,574.2,591.4,553.1Zm-5.8,25.3a43.8,43.8,0,0,1-2.4,5.6,18.7,18.7,0,0,1,.6,7.3c-.3,4.2-1.5,7.4-1.7,7.3s.4-3.3.7-7.4.2-5.6.2-6.8a41.6,41.6,0,0,1-6.4,9,39.3,39.3,0,0,1-5.8,5.1v.4a13.3,13.3,0,0,1-.1,3.9c-.4,3-1.4,5.2-1.6,5.1s.2-2.4.6-5.3a34.9,34.9,0,0,0,.4-3.7h0a38.2,38.2,0,0,1-8.2,4.4c-4.3,1.6-7.2,1.8-7.2,1.5s2.7-.7,6.7-2.6a44.4,44.4,0,0,0,13.9-9.9,49.5,49.5,0,0,0,9.2-14.4c1.7-4.1,2.5-6.8,2.7-6.7S587.1,574.1,585.6,578.3Z" transform="translate(-13.2 -9.3)"/><path class="cls-2" stroke="#fff" stroke-width="1" d="M591,616.4c2.5-3,3.4,6,9.3,8,5.9-2,7.6-12.1,10.1-9s4.2-1,5-5c-4.2,1-10.9-11.1-10.9-16.1V547h-7.6v47.2c0,5-6.7,17.1-10.9,16.1C586.8,614.3,589.2,618.5,591,616.4Zm4.8-7.3a36.3,36.3,0,0,0,2.2-3.7l1.1-2.3.6-1.3v-.2c-.1-4.7-.1-10-.1-15.6,0-18.6.5-33.7,1.1-33.7s1.1,15.1,1.1,33.7c0,5.8,0,11.2-.1,16l.6,1.9c.3.9.7,1.7,1,2.4a15.6,15.6,0,0,0,2.4,3.7,8.1,8.1,0,0,0,2.3,1.8l1,.5c0,.1-.4.1-1.2-.1a7,7,0,0,1-2.7-1.7,14.4,14.4,0,0,1-2.8-3.8l-.9-1.9c-.2,8.9-.5,14.8-.9,14.8s-.7-6.2-.9-15.6l-1,1.9a27.6,27.6,0,0,1-2.5,3.7c-1.6,2-3,2.8-3.1,2.7S594.4,611.1,595.8,609.1Z" transform="translate(-13.2 -9.3)"/><path class="cls-2" stroke="#fff" stroke-width="1" d="M586,543.4a2.6,2.6,0,0,1,2.6-2.6h24.2a2.6,2.6,0,0,1,2.6,2.6h0a2.6,2.6,0,0,1-2.6,2.6H588.6a2.6,2.6,0,0,1-2.6-2.6Z" transform="translate(-13.2 -9.3)"/><path class="cls-2" stroke="#fff" stroke-width="1" d="M1003.9,220.1c-2.9,12.2,1.9,22.7,4.4,17.3s13.1-5.1,15.6-14.1,17-22.9,34-14.1c-5-.4-14.7-.9-18.2,3.2-6.8,7.8,2.6,16.5,9.3,14.3s16.4-11.3,22.5-2-1.8,36.3-7.3,39.4c2.1-5.6.9-12.5-2.5-11.4s-.3,15.8-15,26.5a48.2,48.2,0,0,1-32.3,8.9c-.2,1.6,2.1,1,1.6,2.6,30.9,6.7,71.9-30.9,61.9-65.4C1066.1,183.5,1010.6,191.4,1003.9,220.1Z" transform="translate(-13.2 -9.3)"/><path class="cls-2" stroke="#fff" stroke-width="1" d="M1095.7,253.4c3.8,2.1,6.5,18.3-6.3,27.6-15.4,11.2-17.6,5.5-12.4,4.3s12.4-4.3,15.4-10.6,2.4-16.1.3-17.1C1088.5,259.7,1088.4,249.4,1095.7,253.4Z" transform="translate(-13.2 -9.3)"/><path class="cls-2" stroke="#fff" stroke-width="1" d="M1047,293.8c13.3,1.6,42.5-2.8,49.7-7.1s19.6-7.6,25.9-7.7c4.6-.1-5.4-11.4-9.5-7.1s-10.3,7.4-8.2,5.3c10.3-8.5,16.2-27.3,15.1-34.5s-5.3-7.2-8.3-2c-4.3-10.3-14.7-8.1-18.8-7s-2,8.3,5.4,13.4,8.7,22.8,2.5,28c-24.8,20.9-69.9,15.7-77,15.4s5.2,2.9,12,2.4,16.4-6.3,14.7,1.1C1049.9,296.4,1035.6,292.4,1047,293.8Zm58.6-22.3a32.8,32.8,0,0,0,2.2-15.8,30.1,30.1,0,0,0-5.9-14.8,20.1,20.1,0,0,0-3.4-3.5c-.9-.7-1.5-1-1.4-1.1s.7,0,1.8.6a15.6,15.6,0,0,1,3.9,3.3,28.1,28.1,0,0,1,6.6,14.8l4.4-13.7s-.8,9.2-4.2,14.6a29.6,29.6,0,0,1-.4,8.9,30.8,30.8,0,0,1-2.4,7.2c-1.9,3.9-3.7,5.9-3.8,5.8S1104,275.3,1105.5,271.5Z" transform="translate(-13.2 -9.3)"/><path class="cls-2" stroke="#fff" stroke-width="1" d="M936.4,252.2c-4.2-2-8.7,5.4-1.9,6.6s5.9,14,.6,20l.5,5.3s9.5-10.8,7.9-25.9c0,0,1.6-8.3-8.2-13.7A45.1,45.1,0,0,0,936.4,252.2Z" transform="translate(-13.2 -9.3)"/><path class="cls-2" stroke="#fff" stroke-width="1" d="M930.8,234c2.5,6,7.6,3.7,10.5,8.5,0,0,12,15.7-.5,38.7,0,0,23.1,9.1,33.4-18.5,3-14.7,14.3-16.4,20.3-19s-8.9-9.2-19.3-.9c-1.9-5.2-5.9-7.6-6.6-7.2s-1.7,4.7-1.5,9.5c-3.2-2.5-11.8,1-7,5.1s9,5.8,5.8,16.9c-3.7,7-10.3,14.4-19.1,11.4,0,0,14.9-30.5-7.6-49.4C934.6,225.7,928.7,229,930.8,234Z" transform="translate(-13.2 -9.3)"/><path class="cls-2" stroke="#fff" stroke-width="1" d="M876.9,201.4c-18.3,4.4-24.2,22.7-24.9,33.5.1-.7.2-1.4.3-2.1-3.2,26.1,22.1,57.6,54.8,49.1s9.3-43-7-27.1c-6.3,6.2-4.5,15.5,1.9,20.7a13.4,13.4,0,0,0,4.4-1.5s-10.2-7.8-1.8-15.2,23.8,7.2,4.7,17.1-39.3-7.3-36.3-25c1.5-9.1-13.5-5.3-13.5.6-6.6-9.8,2.5-32,11.2-28.2s16.2-1.9,16.2-1.9-6.5-4.7-5.9-11.8c5.2,7.9,13.5,12.2,21,9.5s16.6-6.6,13-14.1l-4.5,1.7C902.1,207.4,892.3,197.7,876.9,201.4Zm18.1,7.1c-10-2.7-25.4-1.9-34.8,7.3,6.1-7,14.9-10.9,24.7-11.2s13.7,3.3,19.3,3.8A19.3,19.3,0,0,1,895,208.5Z" transform="translate(-13.2 -9.3)"/><path class="cls-2" stroke="#fff" stroke-width="1" d="M882,297.4c-14.7-5.3-38.9-25.2-42.1-58.9-.6-6.4-4.2-15.8-6.3-17.9,1.1,6.3,1.1,16.8-3.2,21,0,5.3,10.5,44.2,35.8,55.7Z" transform="translate(-13.2 -9.3)"/><path class="cls-2" stroke="#fff" stroke-width="1" d="M821,252.1s-10.5,4.2-20-2.1c-1.1,4.2,34.7,15.8,33.7,22.1-2.1-1.1-2.1-2.1-6.3-2.1,1.1,3.2-7.4,13.7-10.5,15.8,4.2,0,22.1,8.4,25.2,11.6h15.8l-14.7-3.2s-12.6-10.5-15.8-11.6c4.2-5.3,7.4-9.5,11.6-8.4-2.1-2.1-4.2-7.4-4.2-7.4S823.1,260.6,821,252.1Z" transform="translate(-13.2 -9.3)"/><path class="cls-2" stroke="#fff" stroke-width="1" d="M816.8,216.4c0-5.3-9.5-15.8-20-14.7s-17.9,5.3-15.8,15.8c4.2-2.1,9.5-5.3,11.6-4.2-1.1,2.1-1.1,10.5,4.2,12.6C801,220.6,811.5,208,816.8,216.4Z" transform="translate(-13.2 -9.3)"/><path class="cls-2" stroke="#fff" stroke-width="1" d="M720,189.1l-20-4.2s-7.4,2.1-12.6,1.1c1.1-1.1,10.5-3.2,10.5-3.2s-8.4-5.3-9.5-9.5c-4.2-3.2-18.9,7.4-17.9,11.6S696.9,199.6,720,189.1Z" transform="translate(-13.2 -9.3)"/><path class="cls-2" stroke="#fff" stroke-width="1" d="M686.4,164.9c8.4,15.8,24.2,23.8,48.4,22.1,14.7-1.1,42.1-4.2,49.4,4.2-17.9-4.2-43.1-4.2-48.4,12.6,11.6,7.4,23.1,3.2,28.4,0s4.2-1.1,4.2-1.1-6.3,6.3-3.2,11.6,12.6-11.6,22.1-15.8,26.3-2.1,35.8,14.7-6.3,30.5-17.9,28.4-2.1-6.3,1.1-3.2c2.1,1.1,5.3-2.1,4.2-5.3s-6.2-6.9-11.6-4.2c-2.1,1.1-5.3,4.2-4.2,10.5s8.2,11.6,16.8,11.6c13.7,0,21-13.7,20-25.2,1.1-16.8-14.7-40-46.3-45.2s-69.3-11.7-81-21-7.4-13.7-6.3-16.8C694.8,139.6,678,149.1,686.4,164.9ZM780,195.4c-29.4,0-31.5,4.2-37.9,6.3C754.7,188,778.9,195.4,780,195.4Z" transform="translate(-13.2 -9.3)"/><path class="cls-2" stroke="#fff" stroke-width="1" d="M896.7,304.7c-5.3,2.1-12.6-5.3-12.6-5.3H830.5s2.1,8.4,15.8,9.5,63.1,0,63.1,0,15.8-1.1,20,10.5c8.4-3.2,4.2-9.5,4.2-9.5h248.7v-5.3Z" transform="translate(-13.2 -9.3)"/><path class="cls-2" stroke="#fff" stroke-width="1" d="M1132.2,288.4v9.5H904c-9.5,0-13.7-9.5-13.7-9.5Z" transform="translate(-13.2 -9.3)"/><path class="cls-2" stroke="#fff" stroke-width="1" d="M1182.2,521.8H688.4c-56.8,0-44.4,38-28.5,53.8,5.6,5.6,6.3,14.1,4.2,17.6,9.9.7,13.4-7,13.4-9.9s-4.2-4.2-4.9-7c5.6,1.4,4.2,5.6,12.7,7s25.4-7,18.3-20.4c-3.5-5.6-10.6-5.6-9.9-3.5s4.2,5.6-1.4,9.9-23.3-.7-28.2-11.3c2.1,2.1,12.3-.5,7.8-2.8-14.1-7-16-28.2,15.5-28.2h494.8Z" transform="translate(-13.2 -9.3)"/><path class="cls-2" stroke="#fff" stroke-width="1" d="M673.7,539.7h508.4v-8.4H686.3C676.9,531.3,673.7,539.7,673.7,539.7Z" transform="translate(-13.2 -9.3)"/><path class="cls-2" stroke="#fff" stroke-width="1" d="M1179.4,281.8s-.6,2-8.1,5.3c23.1-22.8,7.9-49.2-.9-52.9-5.8-2.4-12.3-2.2-17.3,1a49.1,49.1,0,0,0-2.8,15c-.8-3.6-.6-8.3.2-12.9a18.1,18.1,0,0,0-3.5,5.3c-3.4,7.7-1.3,11.4.9,15.5s8.4,1.4,8.4,1.4a33.7,33.7,0,0,1-1.9-4.8c-1.1-11.3,11.1-15.4,11.1-15.4s-10.4,5.7-8.2,12.9c10-.4,15.1,4.4,11.1,3.3a4,4,0,0,0-4.1,6.5c4.2,4.5,8.8,3.7,7.4,12s-17.3,12.8-20.1,13.6c1.4-.4,5.9-2,7.7-5.2s-2.1-11.6-6-9.4c2,.6-5.1,14.9-15.1,15.2h-6.5l-2.8,9.5c14.7,1,31.3-1.5,36.8-3.5,10.2-3.7,18-4.9,22.3-4.8C1187,282.6,1179.4,281.8,1179.4,281.8Zm-31.9,7a22.8,22.8,0,0,0,5.1-3.8,10.4,10.4,0,0,0,2.9-5.4c.3-1.6.1-2.6.3-2.7s.6,1,.5,2.7a9.7,9.7,0,0,1-2.8,6.1,17.3,17.3,0,0,1-5.5,3.8c-1.6.7-2.6.9-2.7.8S1146.1,289.7,1147.5,288.9Zm15.3,1.4a38.2,38.2,0,0,1-12.8,3.5,36.5,36.5,0,0,1-8.9-.3,9.5,9.5,0,0,1-3.2-.8,16.9,16.9,0,0,1,3.2.1,45.4,45.4,0,0,0,8.7-.3,39.5,39.5,0,0,0,12.3-3.7,34,34,0,0,0,6.4-4,21.4,21.4,0,0,0,5.3-5.9,9.9,9.9,0,0,0,.8-1.8,7.1,7.1,0,0,0,.2-1l.3-1c.3-1.3.6-2.7.8-4l.3-2c0-.3-.1-.8-.2-1.3a9.6,9.6,0,0,0-2.1-4.3,18.9,18.9,0,0,0-3.7-3.3c-1-.7-1.7-1.2-1.7-1.3s.9.1,2.1.7a13.2,13.2,0,0,1,4.1,3.3,9,9,0,0,1,1.7,3.4c.1-.9.1-1.8.2-2.7a24.5,24.5,0,0,0-2.5-12.3,15.5,15.5,0,0,0-5.9-6.1c-1.8-1-2.9-1.3-2.9-1.4s1.2-.1,3.2.8a15.1,15.1,0,0,1,6.6,6.1,24.8,24.8,0,0,1,3,13,47.6,47.6,0,0,1-.7,7.8c-.2,1.3-.5,2.7-.8,4.1l-.2,1a8,8,0,0,1-.2,1.1,11.4,11.4,0,0,1-.9,2.1,22.4,22.4,0,0,1-5.7,6.4A34.3,34.3,0,0,1,1162.8,290.3Z" transform="translate(-13.2 -9.3)"/><path class="cls-2" stroke="#fff" stroke-width="1" d="M197.5,220.1c2.9,12.2-1.9,22.7-4.4,17.3s-13.1-5.1-15.6-14.1-17-22.9-34-14.1c5-.4,14.7-.9,18.2,3.2,6.8,7.8-2.6,16.5-9.3,14.3s-16.4-11.3-22.5-2,1.8,36.3,7.3,39.4c-2.1-5.6-.9-12.5,2.5-11.4s.3,15.8,15,26.5a48.2,48.2,0,0,0,32.3,8.9c.2,1.6-2.1,1-1.6,2.6-30.9,6.7-71.9-30.9-61.9-65.4C135.4,183.5,190.8,191.4,197.5,220.1Z" transform="translate(-13.2 -9.3)"/><path class="cls-2" stroke="#fff" stroke-width="1" d="M105.8,253.4c-3.8,2.1-6.5,18.3,6.3,27.6,15.4,11.2,17.6,5.5,12.4,4.3s-12.4-4.3-15.4-10.6-2.4-16.1-.3-17.1C112.9,259.7,113.1,249.4,105.8,253.4Z" transform="translate(-13.2 -9.3)"/><path class="cls-2" stroke="#fff" stroke-width="1" d="M151.1,294.1c-1.7-7.4,9.5-1.5,14.7-1.1s19.5-2.8,12-2.4-52.2,5.6-77-15.4c-6.2-5.2-4.9-22.9,2.5-28s9.5-12.3,5.4-13.4-14.5-3.3-18.8,7c-3-5.2-7.2-5.3-8.3,2s4.8,26,15.1,34.5c2,2.1-4.1-1.1-8.2-5.3s-14.1,7.1-9.5,7.1c6.2.1,19.4,3.8,25.9,7.7s36.4,8.7,49.7,7.1C165.9,292.4,151.6,296.4,151.1,294.1ZM98.7,277.7c-.2.1-1.9-1.9-3.8-5.8a30.8,30.8,0,0,1-2.4-7.2,29.6,29.6,0,0,1-.4-8.9c-3.5-5.5-4.2-14.6-4.2-14.6l4.4,13.7a28.1,28.1,0,0,1,6.6-14.8,15.5,15.5,0,0,1,3.9-3.3c1.1-.6,1.8-.7,1.8-.6s-.5.4-1.4,1.1a20.1,20.1,0,0,0-3.4,3.5,30.1,30.1,0,0,0-5.9,14.8,32.8,32.8,0,0,0,2.2,15.8C97.5,275.3,98.9,277.6,98.7,277.7Z" transform="translate(-13.2 -9.3)"/><path class="cls-2" stroke="#fff" stroke-width="1" d="M265,252.2c4.2-2,8.7,5.4,1.9,6.6s-5.9,14-.6,20l-.5,5.3s-9.5-10.8-7.8-25.9c0,0-1.6-8.3,8.2-13.7A45.1,45.1,0,0,1,265,252.2Z" transform="translate(-13.2 -9.3)"/><path class="cls-2" stroke="#fff" stroke-width="1" d="M270.6,234c-2.5,6-7.6,3.7-10.5,8.5,0,0-12,15.7.5,38.7,0,0-23.1,9.1-33.4-18.5-3-14.7-14.3-16.4-20.3-19s8.9-9.2,19.3-.9c1.9-5.2,5.9-7.6,6.6-7.2s1.7,4.7,1.5,9.5c3.2-2.5,11.8,1,7,5.1s-9,5.8-5.8,16.9c3.7,7,10.3,14.4,19.1,11.4,0,0-14.9-30.5,7.6-49.4C266.8,225.7,272.7,229,270.6,234Z" transform="translate(-13.2 -9.3)"/><path class="cls-2" stroke="#fff" stroke-width="1" d="M291.1,206.6l-4.5-1.7c-3.7,7.5,5.4,11.4,13,14.1s15.8-1.6,21-9.5c.6,7.1-5.9,11.8-5.9,11.8s7.5,5.6,16.2,1.9,17.8,18.5,11.2,28.2c0-5.9-15.1-9.7-13.5-.6,3,17.6-17.3,34.8-36.3,25s-2.8-23.7,4.7-17.1-1.8,15.2-1.8,15.2a13.4,13.4,0,0,0,4.4,1.5c6.4-5.1,8.2-14.5,1.9-20.7-16.4-15.9-40.2,18.4-7,27.1s57.9-22.9,54.8-49.1c.1.7.2,1.4.3,2.1-.7-10.8-6.6-29.1-24.9-33.5C309.1,197.7,299.4,207.4,291.1,206.6Zm6.2,1.9c5.6-.5,10.9-4.1,19.3-3.8s18.6,4.2,24.7,11.2c-9.4-9.2-24.8-10-34.8-7.3A19.3,19.3,0,0,1,297.3,208.4Z" transform="translate(-13.2 -9.3)"/><path class="cls-2" stroke="#fff" stroke-width="1" d="M319.5,297.4c14.7-5.3,38.9-25.2,42.1-58.9.6-6.4,4.2-15.8,6.3-17.9-1.1,6.3-1.1,16.8,3.2,21,0,5.3-10.5,44.2-35.8,55.7Z" transform="translate(-13.2 -9.3)"/><path class="cls-2" stroke="#fff" stroke-width="1" d="M380.5,252.1s10.5,4.2,20-2.1c1.1,4.2-34.7,15.8-33.7,22.1,2.1-1.1,2.1-2.1,6.3-2.1-1.1,3.2,7.4,13.7,10.5,15.8-4.2,0-22.1,8.4-25.2,11.6H342.6l14.7-3.2s12.6-10.5,15.8-11.6c-4.2-5.3-7.4-9.5-11.6-8.4,2.1-2.1,4.2-7.4,4.2-7.4S378.4,260.6,380.5,252.1Z" transform="translate(-13.2 -9.3)"/><path class="cls-2" stroke="#fff" stroke-width="1" d="M384.7,216.4c0-5.3,9.5-15.8,20-14.7s17.9,5.3,15.8,15.8c-4.2-2.1-9.5-5.3-11.6-4.2,1.1,2.1,1.1,10.5-4.2,12.6C400.4,220.6,389.9,208,384.7,216.4Z" transform="translate(-13.2 -9.3)"/><path class="cls-2" stroke="#fff" stroke-width="1" d="M481.4,189.1l20-4.2s7.4,2.1,12.6,1.1c-1.1-1.1-10.5-3.2-10.5-3.2s8.4-5.3,9.5-9.5c4.2-3.2,18.9,7.4,17.9,11.6S504.5,199.6,481.4,189.1Z" transform="translate(-13.2 -9.3)"/><path class="cls-2" stroke="#fff" stroke-width="1" d="M503.5,142.8c1.1,3.2,4.2,8.4-6.3,16.8s-49.4,15.8-81,21-47.3,28.4-46.3,45.2c-1.1,11.6,6.3,25.2,20,25.2,8.6,0,15.8-5.6,16.8-11.6s-2.1-9.5-4.2-10.5c-5.3-2.7-10.5,1.1-11.6,4.2s2.1,6.3,4.2,5.3c3.2-3.2,12.6,1.1,1.1,3.2s-27.3-11.6-17.9-28.4,26.3-18.9,35.8-14.7,18.9,21,22.1,15.8-3.2-11.6-3.2-11.6-1.1-2.1,4.2,1.1,16.8,7.4,28.4,0c-5.3-16.8-30.5-16.8-48.4-12.6,7.4-8.4,34.7-5.3,49.4-4.2,24.1,1.7,40-6.3,48.4-22.1S506.7,139.6,503.5,142.8Zm-44.2,58.9c-6.3-2.1-8.4-6.3-37.9-6.3C422.5,195.4,446.7,188,459.3,201.7Z" transform="translate(-13.2 -9.3)"/><path class="cls-2" stroke="#fff" stroke-width="1" d="M304.7,304.7c5.3,2.1,12.6-5.3,12.6-5.3H371s-2.1,8.4-15.8,9.5-63.1,0-63.1,0-15.8-1.1-20,10.5c-8.4-3.2-4.2-9.5-4.2-9.5H19.3v-5.3Z" transform="translate(-13.2 -9.3)"/><path class="cls-2" stroke="#fff" stroke-width="1" d="M69.2,288.4v9.5H297.4c9.5,0,13.7-9.5,13.7-9.5Z" transform="translate(-13.2 -9.3)"/><path class="cls-2" stroke="#fff" stroke-width="1" d="M19.3,521.8H513c56.8,0,44.4,38,28.5,53.8-5.6,5.6-6.3,14.1-4.2,17.6-9.9.7-13.4-7-13.4-9.9s4.2-4.2,4.9-7c-5.6,1.4-4.2,5.6-12.7,7s-25.4-7-18.3-20.4c3.5-5.6,10.6-5.6,9.9-3.5s-4.2,5.6,1.4,9.9,23.2-.7,28.2-11.3c-2.1,2.1-12.3-.5-7.8-2.8,14.1-7,16-28.2-15.5-28.2H19.3Z" transform="translate(-13.2 -9.3)"/><path class="cls-2" stroke="#fff" stroke-width="1" d="M527.7,539.7H19.3v-8.4H515.1C524.6,531.3,527.7,539.7,527.7,539.7Z" transform="translate(-13.2 -9.3)"/><path class="cls-2" stroke="#fff" stroke-width="1" d="M13.2,289.5c4.3-.2,12.1,1,22.3,4.8,5.4,2,22.1,4.6,36.8,3.5l-2.8-9.5H63.1c-10-.4-17.1-14.6-15.1-15.2-3.9-2.1-8.2,5.7-6,9.4s6.4,4.8,7.7,5.2c-2.7-.8-18.8-5.9-20.1-13.6s3.3-7.5,7.4-12a4,4,0,0,0-4.1-6.5c-4,1.2,1.1-3.6,11.1-3.3,2.3-7.2-8.2-12.9-8.2-12.9S48,243.5,47,254.8a33.7,33.7,0,0,1-1.9,4.8s6.2,2.6,8.4-1.4,4.4-7.8.9-15.5a18.1,18.1,0,0,0-3.5-5.3c.7,4.6,1,9.2.2,12.9a49.1,49.1,0,0,0-2.8-15c-4.9-3.2-11.5-3.5-17.3-1-8.8,3.7-24.1,30.1-.9,52.9-7.5-3.3-8.1-5.3-8.1-5.3S14.5,282.6,13.2,289.5Zm43,.7c0,.1-1.1-.1-2.7-.8a17.3,17.3,0,0,1-5.5-3.8,9.7,9.7,0,0,1-2.8-6.1c-.1-1.8.4-2.8.5-2.7s0,1.1.3,2.7a10.4,10.4,0,0,0,2.9,5.4,22.8,22.8,0,0,0,5.1,3.8C55.4,289.7,56.3,290.1,56.3,290.3Zm-24.4-4.2a22.4,22.4,0,0,1-5.7-6.4,11.5,11.5,0,0,1-.9-2.1,8.3,8.3,0,0,1-.2-1.1l-.2-1c-.3-1.4-.6-2.7-.8-4.1a47.5,47.5,0,0,1-.7-7.8,24.8,24.8,0,0,1,3-13,15.1,15.1,0,0,1,6.6-6.1c2-.9,3.2-.9,3.2-.8s-1.1.4-2.9,1.4a15.5,15.5,0,0,0-5.9,6.1,24.5,24.5,0,0,0-2.5,12.3c0,.9.1,1.8.2,2.7a9,9,0,0,1,1.7-3.4,13.2,13.2,0,0,1,4.1-3.3c1.2-.6,2-.8,2.1-.7s-.6.6-1.7,1.3a18.9,18.9,0,0,0-3.7,3.3,9.6,9.6,0,0,0-2.1,4.3c-.1.5-.1,1-.2,1.3l.3,2c.2,1.3.5,2.6.8,4l.3,1a7.1,7.1,0,0,0,.2,1,9.8,9.8,0,0,0,.8,1.8,21.4,21.4,0,0,0,5.3,5.9,34,34,0,0,0,6.4,4,39.5,39.5,0,0,0,12.3,3.7,45.4,45.4,0,0,0,8.7.3,16.9,16.9,0,0,1,3.2-.1,9.5,9.5,0,0,1-3.2.8,36.5,36.5,0,0,1-8.9.3,38.2,38.2,0,0,1-12.8-3.5A34.2,34.2,0,0,1,31.9,286.1Z" transform="translate(-13.2 -9.3)"/><path class="cls-2" stroke="#fff" stroke-width="1" d="M560.1,128.2c-1.2,4.6-3.1,19.8,1.7,36.8l6.6-2.1s-4.6-19.1-1.5-34.3Z" transform="translate(-13.2 -9.3)"/><path class="cls-2" stroke="#fff" stroke-width="1" d="M574.4,130.2c-1.1,4-3.3,17.4-.3,32.6l5.2-1.6s-2.7-17.1.3-30.4Z" transform="translate(-13.2 -9.3)"/><path class="cls-2" stroke="#fff" stroke-width="1" d="M586.4,134.6a58,58,0,0,0-.2,23.8l3.8-1.1s-2-12.4.2-22.2Z" transform="translate(-13.2 -9.3)"/><path class="cls-2" stroke="#fff" stroke-width="1" d="M547.8,204.5c1.6-4.2-2.1,11.9,12.6,11.9,7-.7,46.3-23.7,56.8-22.4,14.4,1.8,19.6,0,18.2-5.6,3.5.7,4.9,10.5-2.8,10.5s-17.5-2.2-27,1.1c-22.4,7.7-37.5,22.1-45.9,22.8S543.6,215.7,547.8,204.5Z" transform="translate(-13.2 -9.3)"/><path class="cls-2" stroke="#fff" stroke-width="1" d="M622.7,99.3s23.9-6,29.6-26.6c4.3-15.5-.6-15.8-1-18.9-4.9-1.5-5-8.3-5.3-13.7-4-2.1-6.4-9.7-2.9-13,1.1-6.1,4.4-12.5,11.3-7.4,10.6,7.8,19.4,42.9-1.2,67.3-15.3,18-34.9,18.8-34.9,18.8Z" transform="translate(-13.2 -9.3)"/><path class="cls-2" stroke="#fff" stroke-width="1" d="M628.4,117.1s15.7-17.7,35.7-13.4c15.1,3.2,13.2,7.5,15.7,9.2-.9,4.8,4.8,7.9,9.3,10.5.1,4.3,5.4,9.7,9.8,8.2,5.7,1.8,12.6,1.7,11.3-6.4-2-12.5-28-35.5-57.9-28.6-22.1,5.1-31.4,21.5-31.4,21.5Z" transform="translate(-13.2 -9.3)"/><path class="cls-2" stroke="#fff" stroke-width="1" d="M564.3,112.9l15,13.8-18-9.2v.2l-3.9-2.2-2.9-1.4c-9,8.5-14.5,33.1.9,56.8,10.2-1.7,30.4-6.2,40.9-13.4-8.3,10.1-21.4,15.4-37.2,18.7q2,2.6,4.4,5.1a6.8,6.8,0,0,1,2,3.1,20.6,20.6,0,0,0,19.6.5c-4.2,3-12.6,8.1-22.5,4.5a34.6,34.6,0,0,1-4.2,2.3c-6.3,3-5.3,3.7-6.7,7.4-3.8,10.3,2.2,16.3,13.3,13.3s41.4-24.4,59.2-20c14.8,2.3,8.1-10.9,3.6-13.9s14.7-14.7,17.9-40C650.4,100.2,596.6,66.6,564.3,112.9Zm42.5,37a4.1,4.1,0,1,0-1.6-7.9,5.3,5.3,0,1,1-2.2,2.2,4.1,4.1,0,0,0,3.8,5.7Zm-29.1-37c-5.8,0-8.9-.5-7.9-2.1,0,0,13.7-18.9,33.1-17.4-4.7,2.6-20,8.9-20,13.7C588.3,110.2,582,118.1,577.8,112.8Zm-22.3,47.5c-8.4-22.4-.7-32.9-.7-32.9l41.4,20.3C591.3,151.9,563.2,161,555.5,160.3Zm62.1-8.9a10.1,10.1,0,0,1-3.5,4.1,10.8,10.8,0,0,1-9.3,1.7,6.2,6.2,0,0,1-2.5-1.5c-.5-.5-.6-.9-.6-.9s1.2,1,3.3,1.5a10.8,10.8,0,0,0,8.2-1.9,9.6,9.6,0,0,0,3.1-3.5,7.4,7.4,0,0,0,.8-3.7c-.2-2.2-.9-3.5-.7-3.6s1.2,1,1.7,3.5A7.7,7.7,0,0,1,617.6,151.4Z" transform="translate(-13.2 -9.3)"/><path class="cls-2" stroke="#fff" stroke-width="1" d="M582.5,63.7c-40.3-9.9-74.3,13.1-76.3,26-1.3,8.4,8,8.9,15.6,7.4,5.9,1.9,11.2-.1,15.4-4.4,7.2.3,10.3-5.4,8.8-10.5,3.2-1.6,1-9.8,21.2-11.8,30.7-3,45.1,15.2,45.1,15.2l7.7,5.5S620,73,582.5,63.7Zm-22.3,2.4A106.3,106.3,0,0,0,549.6,68a25,25,0,0,1-2.5,3.5c-1.8,2.2-3.6,3.8-3.9,3.6s1-2.3,2.8-4.5l2.1-2.3a81.2,81.2,0,0,0-9.7,3L537,72l-.2.4a22.6,22.6,0,0,0-1.7,4.3c-1,3.5-1,6.5-1.4,6.5s-1-3.1,0-6.9a13.3,13.3,0,0,1,1.6-3.7,58,58,0,0,0-8,4.3l-.8.6c-.5,1.4-1.3,3.6-2,6-1.3,4.4-1.9,8.1-2.3,8.1s-.4-3.9,1-8.5a26.6,26.6,0,0,1,1.7-4.4,45.8,45.8,0,0,0-5.3,4.5c-4,4.1-5.8,7.2-6.2,7s.1-1,.8-2.5a29.7,29.7,0,0,1,3.9-5.9,40.4,40.4,0,0,1,7.8-7.1,53.4,53.4,0,0,1,11.4-6A71.5,71.5,0,0,1,560,64.2c5.9-.2,9.6.4,9.5.8S565.9,65.4,560.1,66.2Z" transform="translate(-13.2 -9.3)"/><path class="cls-2" stroke="#fff" stroke-width="1" d="M622.6,45.5c-22-35.9-73.5-41.4-89.5-32.3-10.3,5.9-3.6,12.9,4.1,17,2.6,5.7,14,6.3,18.9,2.5,7.4,2.2,16.5,5.2,21,0,4.3,1,7.3-4.7,25.8,7.5,24.6,16.2,20.4,47.5,20.4,47.5l6.3,8.1S638.9,72.1,622.6,45.5Zm-.6,7.2c-.2.1-.9-.9-2.2-2.7a91.1,91.1,0,0,0-5.8-7.2A72.6,72.6,0,0,0,604,33.6a78.8,78.8,0,0,0-10.9-6.8h-.8a57.9,57.9,0,0,0-8.3-.6,41.9,41.9,0,0,0-8.2,1.1c-2.1.5-3.4.8-3.5.6s1.1-.8,3.2-1.6a27.9,27.9,0,0,1,8.4-1.5,30.4,30.4,0,0,1,5.9.5h-.3a101.5,101.5,0,0,0-16.7-6,91.3,91.3,0,0,0-10.4,1,44,44,0,0,0-12.8,3.8c-3.1,1.5-4.6,3.1-4.7,2.9s1.2-2,4.3-3.8a37,37,0,0,1,13.1-4.3,63.9,63.9,0,0,1,6.4-.7c-3-.7-5.8-1.2-8.2-1.6-7.8-1.3-12.6-1.4-12.6-1.8s4.9-.9,12.9-.1a93.7,93.7,0,0,1,30.1,8.1,73.6,73.6,0,0,1,14.7,9.1,63,63,0,0,1,10,10,51.9,51.9,0,0,1,5.3,7.9C621.8,51.4,622.3,52.6,622.1,52.7Z" transform="translate(-13.2 -9.3)"/><path class="cls-2" stroke="#fff" stroke-width="1" d="M649.4,111.2s19.6,7.7,16.1,39.3c-2.1,15.4-11.9,29.4-13.3,21.7l-1.4-7.7s-2.1,2.8-4.2.7,4.9-9.8,8.4-16.8-.7-32.9-9.8-34.4C643.1,111.9,649.4,111.2,649.4,111.2Z" transform="translate(-13.2 -9.3)"/><path class="cls-1" d="M604.5,538.2v-7.7c0-3.5,3.3-7.2,6.1-6.8-.6-1.9-2.2-3.8-3.4-2.8s-2.3-2.8-6.2-3.7c-3.9.9-5.1,5.6-6.8,4.2s-2.8.5-3.4,2.3c2.8-.5,6.1,3.3,6.1,6.8v7.7Z" transform="translate(-13.2 -9.3)"/><path class="cls-1" d="M611.2,538.2s1.1-4.9,11.6-6.9c5.3-1.4-2.1-2.8-4.2-2.8,0-.7-3.2,2.1-4.2,3.5s2-5,4.2-5.5c5.3-1.4.8-3.4-1.1-2.8-6.3,2.1-9.5,5.5-9.5,14.5Z" transform="translate(-13.2 -9.3)"/><path class="cls-1" d="M613.3,601.3c4,7.7,8.4,0,8.4,0s4.2,10,6.3,12.1,6.3,4,8.4-6c5.3,3,17.9,2,18.9-3s-7.4-3-11.6-5c-21-6-30.5-34.2-30.5-34.2s3.2,9,8.4,2c1.4-1.8-10.5-12.1-10.5-12.1v-8h-3.2v6C608.1,574.2,610.2,595.3,613.3,601.3Zm-1.1-30.1c.3-.1,1,2.6,2.7,6.7a49.5,49.5,0,0,0,9.2,14.4,44.4,44.4,0,0,0,13.9,9.9c4,1.8,6.7,2.4,6.7,2.6s-2.9.1-7.2-1.5a38.2,38.2,0,0,1-8.2-4.4h0a34.6,34.6,0,0,0,.4,3.7c.4,2.9.9,5.2.6,5.3s-1.2-2.2-1.6-5.1a13.4,13.4,0,0,1-.1-3.9v-.4a39.4,39.4,0,0,1-5.8-5.1,41.7,41.7,0,0,1-6.4-9c.1,1.1,0,3.7.2,6.8s1,7.3.7,7.4-1.4-3.1-1.7-7.3a18.7,18.7,0,0,1,.6-7.3,43.6,43.6,0,0,1-2.4-5.6C612.4,574.1,612.1,571.3,612.3,571.2Z" transform="translate(-13.2 -9.3)"/><path class="cls-1" d="M588.3,538.2s-1.1-4.9-11.6-6.9c-5.3-1.4,2.1-2.8,4.2-2.8,0-.7,3.2,2.1,4.2,3.5s-2-5-4.2-5.5c-5.3-1.4-.8-3.4,1.1-2.8,6.3,2.1,9.5,5.5,9.5,14.5Z" transform="translate(-13.2 -9.3)"/><path class="cls-1" d="M591.4,553.1v-6h-3.2v8s-11.9,10.2-10.5,12.1c5.3,7,8.4-2,8.4-2s-9.5,28.1-30.5,34.2c-4.2,2-12.5.6-11.6,5s13.7,6,18.9,3c2.1,10,6.3,8,8.4,6s6.3-12.1,6.3-12.1,4.4,7.7,8.4,0C589.3,595.3,591.4,574.2,591.4,553.1Zm-5.8,25.3a43.8,43.8,0,0,1-2.4,5.6,18.7,18.7,0,0,1,.6,7.3c-.3,4.2-1.5,7.4-1.7,7.3s.4-3.3.7-7.4.2-5.6.2-6.8a41.6,41.6,0,0,1-6.4,9,39.3,39.3,0,0,1-5.8,5.1v.4a13.3,13.3,0,0,1-.1,3.9c-.4,3-1.4,5.2-1.6,5.1s.2-2.4.6-5.3a34.9,34.9,0,0,0,.4-3.7h0a38.2,38.2,0,0,1-8.2,4.4c-4.3,1.6-7.2,1.8-7.2,1.5s2.7-.7,6.7-2.6a44.4,44.4,0,0,0,13.9-9.9,49.5,49.5,0,0,0,9.2-14.4c1.7-4.1,2.5-6.8,2.7-6.7S587.1,574.1,585.6,578.3Z" transform="translate(-13.2 -9.3)"/><path class="cls-1" d="M591,616.4c2.5-3,3.4,6,9.3,8,5.9-2,7.6-12.1,10.1-9s4.2-1,5-5c-4.2,1-10.9-11.1-10.9-16.1V547h-7.6v47.2c0,5-6.7,17.1-10.9,16.1C586.8,614.3,589.2,618.5,591,616.4Zm4.8-7.3a36.3,36.3,0,0,0,2.2-3.7l1.1-2.3.6-1.3v-.2c-.1-4.7-.1-10-.1-15.6,0-18.6.5-33.7,1.1-33.7s1.1,15.1,1.1,33.7c0,5.8,0,11.2-.1,16l.6,1.9c.3.9.7,1.7,1,2.4a15.6,15.6,0,0,0,2.4,3.7,8.1,8.1,0,0,0,2.3,1.8l1,.5c0,.1-.4.1-1.2-.1a7,7,0,0,1-2.7-1.7,14.4,14.4,0,0,1-2.8-3.8l-.9-1.9c-.2,8.9-.5,14.8-.9,14.8s-.7-6.2-.9-15.6l-1,1.9a27.6,27.6,0,0,1-2.5,3.7c-1.6,2-3,2.8-3.1,2.7S594.4,611.1,595.8,609.1Z" transform="translate(-13.2 -9.3)"/><path class="cls-1" d="M586,543.4a2.6,2.6,0,0,1,2.6-2.6h24.2a2.6,2.6,0,0,1,2.6,2.6h0a2.6,2.6,0,0,1-2.6,2.6H588.6a2.6,2.6,0,0,1-2.6-2.6Z" transform="translate(-13.2 -9.3)"/><path class="cls-1" d="M1003.9,220.1c-2.9,12.2,1.9,22.7,4.4,17.3s13.1-5.1,15.6-14.1,17-22.9,34-14.1c-5-.4-14.7-.9-18.2,3.2-6.8,7.8,2.6,16.5,9.3,14.3s16.4-11.3,22.5-2-1.8,36.3-7.3,39.4c2.1-5.6.9-12.5-2.5-11.4s-.3,15.8-15,26.5a48.2,48.2,0,0,1-32.3,8.9c-.2,1.6,2.1,1,1.6,2.6,30.9,6.7,71.9-30.9,61.9-65.4C1066.1,183.5,1010.6,191.4,1003.9,220.1Z" transform="translate(-13.2 -9.3)"/><path class="cls-1" d="M1095.7,253.4c3.8,2.1,6.5,18.3-6.3,27.6-15.4,11.2-17.6,5.5-12.4,4.3s12.4-4.3,15.4-10.6,2.4-16.1.3-17.1C1088.5,259.7,1088.4,249.4,1095.7,253.4Z" transform="translate(-13.2 -9.3)"/><path class="cls-1" d="M1047,293.8c13.3,1.6,42.5-2.8,49.7-7.1s19.6-7.6,25.9-7.7c4.6-.1-5.4-11.4-9.5-7.1s-10.3,7.4-8.2,5.3c10.3-8.5,16.2-27.3,15.1-34.5s-5.3-7.2-8.3-2c-4.3-10.3-14.7-8.1-18.8-7s-2,8.3,5.4,13.4,8.7,22.8,2.5,28c-24.8,20.9-69.9,15.7-77,15.4s5.2,2.9,12,2.4,16.4-6.3,14.7,1.1C1049.9,296.4,1035.6,292.4,1047,293.8Zm58.6-22.3a32.8,32.8,0,0,0,2.2-15.8,30.1,30.1,0,0,0-5.9-14.8,20.1,20.1,0,0,0-3.4-3.5c-.9-.7-1.5-1-1.4-1.1s.7,0,1.8.6a15.6,15.6,0,0,1,3.9,3.3,28.1,28.1,0,0,1,6.6,14.8l4.4-13.7s-.8,9.2-4.2,14.6a29.6,29.6,0,0,1-.4,8.9,30.8,30.8,0,0,1-2.4,7.2c-1.9,3.9-3.7,5.9-3.8,5.8S1104,275.3,1105.5,271.5Z" transform="translate(-13.2 -9.3)"/><path class="cls-1" d="M936.4,252.2c-4.2-2-8.7,5.4-1.9,6.6s5.9,14,.6,20l.5,5.3s9.5-10.8,7.9-25.9c0,0,1.6-8.3-8.2-13.7A45.1,45.1,0,0,0,936.4,252.2Z" transform="translate(-13.2 -9.3)"/><path class="cls-1" d="M930.8,234c2.5,6,7.6,3.7,10.5,8.5,0,0,12,15.7-.5,38.7,0,0,23.1,9.1,33.4-18.5,3-14.7,14.3-16.4,20.3-19s-8.9-9.2-19.3-.9c-1.9-5.2-5.9-7.6-6.6-7.2s-1.7,4.7-1.5,9.5c-3.2-2.5-11.8,1-7,5.1s9,5.8,5.8,16.9c-3.7,7-10.3,14.4-19.1,11.4,0,0,14.9-30.5-7.6-49.4C934.6,225.7,928.7,229,930.8,234Z" transform="translate(-13.2 -9.3)"/><path class="cls-1" d="M876.9,201.4c-18.3,4.4-24.2,22.7-24.9,33.5.1-.7.2-1.4.3-2.1-3.2,26.1,22.1,57.6,54.8,49.1s9.3-43-7-27.1c-6.3,6.2-4.5,15.5,1.9,20.7a13.4,13.4,0,0,0,4.4-1.5s-10.2-7.8-1.8-15.2,23.8,7.2,4.7,17.1-39.3-7.3-36.3-25c1.5-9.1-13.5-5.3-13.5.6-6.6-9.8,2.5-32,11.2-28.2s16.2-1.9,16.2-1.9-6.5-4.7-5.9-11.8c5.2,7.9,13.5,12.2,21,9.5s16.6-6.6,13-14.1l-4.5,1.7C902.1,207.4,892.3,197.7,876.9,201.4Zm18.1,7.1c-10-2.7-25.4-1.9-34.8,7.3,6.1-7,14.9-10.9,24.7-11.2s13.7,3.3,19.3,3.8A19.3,19.3,0,0,1,895,208.5Z" transform="translate(-13.2 -9.3)"/><path class="cls-1" d="M882,297.4c-14.7-5.3-38.9-25.2-42.1-58.9-.6-6.4-4.2-15.8-6.3-17.9,1.1,6.3,1.1,16.8-3.2,21,0,5.3,10.5,44.2,35.8,55.7Z" transform="translate(-13.2 -9.3)"/><path class="cls-1" d="M821,252.1s-10.5,4.2-20-2.1c-1.1,4.2,34.7,15.8,33.7,22.1-2.1-1.1-2.1-2.1-6.3-2.1,1.1,3.2-7.4,13.7-10.5,15.8,4.2,0,22.1,8.4,25.2,11.6h15.8l-14.7-3.2s-12.6-10.5-15.8-11.6c4.2-5.3,7.4-9.5,11.6-8.4-2.1-2.1-4.2-7.4-4.2-7.4S823.1,260.6,821,252.1Z" transform="translate(-13.2 -9.3)"/><path class="cls-1" d="M816.8,216.4c0-5.3-9.5-15.8-20-14.7s-17.9,5.3-15.8,15.8c4.2-2.1,9.5-5.3,11.6-4.2-1.1,2.1-1.1,10.5,4.2,12.6C801,220.6,811.5,208,816.8,216.4Z" transform="translate(-13.2 -9.3)"/><path class="cls-1" d="M720,189.1l-20-4.2s-7.4,2.1-12.6,1.1c1.1-1.1,10.5-3.2,10.5-3.2s-8.4-5.3-9.5-9.5c-4.2-3.2-18.9,7.4-17.9,11.6S696.9,199.6,720,189.1Z" transform="translate(-13.2 -9.3)"/><path class="cls-1" d="M686.4,164.9c8.4,15.8,24.2,23.8,48.4,22.1,14.7-1.1,42.1-4.2,49.4,4.2-17.9-4.2-43.1-4.2-48.4,12.6,11.6,7.4,23.1,3.2,28.4,0s4.2-1.1,4.2-1.1-6.3,6.3-3.2,11.6,12.6-11.6,22.1-15.8,26.3-2.1,35.8,14.7-6.3,30.5-17.9,28.4-2.1-6.3,1.1-3.2c2.1,1.1,5.3-2.1,4.2-5.3s-6.2-6.9-11.6-4.2c-2.1,1.1-5.3,4.2-4.2,10.5s8.2,11.6,16.8,11.6c13.7,0,21-13.7,20-25.2,1.1-16.8-14.7-40-46.3-45.2s-69.3-11.7-81-21-7.4-13.7-6.3-16.8C694.8,139.6,678,149.1,686.4,164.9ZM780,195.4c-29.4,0-31.5,4.2-37.9,6.3C754.7,188,778.9,195.4,780,195.4Z" transform="translate(-13.2 -9.3)"/><path class="cls-1" d="M896.7,304.7c-5.3,2.1-12.6-5.3-12.6-5.3H830.5s2.1,8.4,15.8,9.5,63.1,0,63.1,0,15.8-1.1,20,10.5c8.4-3.2,4.2-9.5,4.2-9.5h248.7v-5.3Z" transform="translate(-13.2 -9.3)"/><path class="cls-1" d="M1132.2,288.4v9.5H904c-9.5,0-13.7-9.5-13.7-9.5Z" transform="translate(-13.2 -9.3)"/><path class="cls-1" d="M1182.2,521.8H688.4c-56.8,0-44.4,38-28.5,53.8,5.6,5.6,6.3,14.1,4.2,17.6,9.9.7,13.4-7,13.4-9.9s-4.2-4.2-4.9-7c5.6,1.4,4.2,5.6,12.7,7s25.4-7,18.3-20.4c-3.5-5.6-10.6-5.6-9.9-3.5s4.2,5.6-1.4,9.9-23.3-.7-28.2-11.3c2.1,2.1,12.3-.5,7.8-2.8-14.1-7-16-28.2,15.5-28.2h494.8Z" transform="translate(-13.2 -9.3)"/><path class="cls-1" d="M673.7,539.7h508.4v-8.4H686.3C676.9,531.3,673.7,539.7,673.7,539.7Z" transform="translate(-13.2 -9.3)"/><path class="cls-1" d="M1179.4,281.8s-.6,2-8.1,5.3c23.1-22.8,7.9-49.2-.9-52.9-5.8-2.4-12.3-2.2-17.3,1a49.1,49.1,0,0,0-2.8,15c-.8-3.6-.6-8.3.2-12.9a18.1,18.1,0,0,0-3.5,5.3c-3.4,7.7-1.3,11.4.9,15.5s8.4,1.4,8.4,1.4a33.7,33.7,0,0,1-1.9-4.8c-1.1-11.3,11.1-15.4,11.1-15.4s-10.4,5.7-8.2,12.9c10-.4,15.1,4.4,11.1,3.3a4,4,0,0,0-4.1,6.5c4.2,4.5,8.8,3.7,7.4,12s-17.3,12.8-20.1,13.6c1.4-.4,5.9-2,7.7-5.2s-2.1-11.6-6-9.4c2,.6-5.1,14.9-15.1,15.2h-6.5l-2.8,9.5c14.7,1,31.3-1.5,36.8-3.5,10.2-3.7,18-4.9,22.3-4.8C1187,282.6,1179.4,281.8,1179.4,281.8Zm-31.9,7a22.8,22.8,0,0,0,5.1-3.8,10.4,10.4,0,0,0,2.9-5.4c.3-1.6.1-2.6.3-2.7s.6,1,.5,2.7a9.7,9.7,0,0,1-2.8,6.1,17.3,17.3,0,0,1-5.5,3.8c-1.6.7-2.6.9-2.7.8S1146.1,289.7,1147.5,288.9Zm15.3,1.4a38.2,38.2,0,0,1-12.8,3.5,36.5,36.5,0,0,1-8.9-.3,9.5,9.5,0,0,1-3.2-.8,16.9,16.9,0,0,1,3.2.1,45.4,45.4,0,0,0,8.7-.3,39.5,39.5,0,0,0,12.3-3.7,34,34,0,0,0,6.4-4,21.4,21.4,0,0,0,5.3-5.9,9.9,9.9,0,0,0,.8-1.8,7.1,7.1,0,0,0,.2-1l.3-1c.3-1.3.6-2.7.8-4l.3-2c0-.3-.1-.8-.2-1.3a9.6,9.6,0,0,0-2.1-4.3,18.9,18.9,0,0,0-3.7-3.3c-1-.7-1.7-1.2-1.7-1.3s.9.1,2.1.7a13.2,13.2,0,0,1,4.1,3.3,9,9,0,0,1,1.7,3.4c.1-.9.1-1.8.2-2.7a24.5,24.5,0,0,0-2.5-12.3,15.5,15.5,0,0,0-5.9-6.1c-1.8-1-2.9-1.3-2.9-1.4s1.2-.1,3.2.8a15.1,15.1,0,0,1,6.6,6.1,24.8,24.8,0,0,1,3,13,47.6,47.6,0,0,1-.7,7.8c-.2,1.3-.5,2.7-.8,4.1l-.2,1a8,8,0,0,1-.2,1.1,11.4,11.4,0,0,1-.9,2.1,22.4,22.4,0,0,1-5.7,6.4A34.3,34.3,0,0,1,1162.8,290.3Z" transform="translate(-13.2 -9.3)"/><path class="cls-1" d="M197.5,220.1c2.9,12.2-1.9,22.7-4.4,17.3s-13.1-5.1-15.6-14.1-17-22.9-34-14.1c5-.4,14.7-.9,18.2,3.2,6.8,7.8-2.6,16.5-9.3,14.3s-16.4-11.3-22.5-2,1.8,36.3,7.3,39.4c-2.1-5.6-.9-12.5,2.5-11.4s.3,15.8,15,26.5a48.2,48.2,0,0,0,32.3,8.9c.2,1.6-2.1,1-1.6,2.6-30.9,6.7-71.9-30.9-61.9-65.4C135.4,183.5,190.8,191.4,197.5,220.1Z" transform="translate(-13.2 -9.3)"/><path class="cls-1" d="M105.8,253.4c-3.8,2.1-6.5,18.3,6.3,27.6,15.4,11.2,17.6,5.5,12.4,4.3s-12.4-4.3-15.4-10.6-2.4-16.1-.3-17.1C112.9,259.7,113.1,249.4,105.8,253.4Z" transform="translate(-13.2 -9.3)"/><path class="cls-1" d="M151.1,294.1c-1.7-7.4,9.5-1.5,14.7-1.1s19.5-2.8,12-2.4-52.2,5.6-77-15.4c-6.2-5.2-4.9-22.9,2.5-28s9.5-12.3,5.4-13.4-14.5-3.3-18.8,7c-3-5.2-7.2-5.3-8.3,2s4.8,26,15.1,34.5c2,2.1-4.1-1.1-8.2-5.3s-14.1,7.1-9.5,7.1c6.2.1,19.4,3.8,25.9,7.7s36.4,8.7,49.7,7.1C165.9,292.4,151.6,296.4,151.1,294.1ZM98.7,277.7c-.2.1-1.9-1.9-3.8-5.8a30.8,30.8,0,0,1-2.4-7.2,29.6,29.6,0,0,1-.4-8.9c-3.5-5.5-4.2-14.6-4.2-14.6l4.4,13.7a28.1,28.1,0,0,1,6.6-14.8,15.5,15.5,0,0,1,3.9-3.3c1.1-.6,1.8-.7,1.8-.6s-.5.4-1.4,1.1a20.1,20.1,0,0,0-3.4,3.5,30.1,30.1,0,0,0-5.9,14.8,32.8,32.8,0,0,0,2.2,15.8C97.5,275.3,98.9,277.6,98.7,277.7Z" transform="translate(-13.2 -9.3)"/><path class="cls-1" d="M265,252.2c4.2-2,8.7,5.4,1.9,6.6s-5.9,14-.6,20l-.5,5.3s-9.5-10.8-7.8-25.9c0,0-1.6-8.3,8.2-13.7A45.1,45.1,0,0,1,265,252.2Z" transform="translate(-13.2 -9.3)"/><path class="cls-1" d="M270.6,234c-2.5,6-7.6,3.7-10.5,8.5,0,0-12,15.7.5,38.7,0,0-23.1,9.1-33.4-18.5-3-14.7-14.3-16.4-20.3-19s8.9-9.2,19.3-.9c1.9-5.2,5.9-7.6,6.6-7.2s1.7,4.7,1.5,9.5c3.2-2.5,11.8,1,7,5.1s-9,5.8-5.8,16.9c3.7,7,10.3,14.4,19.1,11.4,0,0-14.9-30.5,7.6-49.4C266.8,225.7,272.7,229,270.6,234Z" transform="translate(-13.2 -9.3)"/><path class="cls-1" d="M291.1,206.6l-4.5-1.7c-3.7,7.5,5.4,11.4,13,14.1s15.8-1.6,21-9.5c.6,7.1-5.9,11.8-5.9,11.8s7.5,5.6,16.2,1.9,17.8,18.5,11.2,28.2c0-5.9-15.1-9.7-13.5-.6,3,17.6-17.3,34.8-36.3,25s-2.8-23.7,4.7-17.1-1.8,15.2-1.8,15.2a13.4,13.4,0,0,0,4.4,1.5c6.4-5.1,8.2-14.5,1.9-20.7-16.4-15.9-40.2,18.4-7,27.1s57.9-22.9,54.8-49.1c.1.7.2,1.4.3,2.1-.7-10.8-6.6-29.1-24.9-33.5C309.1,197.7,299.4,207.4,291.1,206.6Zm6.2,1.9c5.6-.5,10.9-4.1,19.3-3.8s18.6,4.2,24.7,11.2c-9.4-9.2-24.8-10-34.8-7.3A19.3,19.3,0,0,1,297.3,208.4Z" transform="translate(-13.2 -9.3)"/><path class="cls-1" d="M319.5,297.4c14.7-5.3,38.9-25.2,42.1-58.9.6-6.4,4.2-15.8,6.3-17.9-1.1,6.3-1.1,16.8,3.2,21,0,5.3-10.5,44.2-35.8,55.7Z" transform="translate(-13.2 -9.3)"/><path class="cls-1" d="M380.5,252.1s10.5,4.2,20-2.1c1.1,4.2-34.7,15.8-33.7,22.1,2.1-1.1,2.1-2.1,6.3-2.1-1.1,3.2,7.4,13.7,10.5,15.8-4.2,0-22.1,8.4-25.2,11.6H342.6l14.7-3.2s12.6-10.5,15.8-11.6c-4.2-5.3-7.4-9.5-11.6-8.4,2.1-2.1,4.2-7.4,4.2-7.4S378.4,260.6,380.5,252.1Z" transform="translate(-13.2 -9.3)"/><path class="cls-1" d="M384.7,216.4c0-5.3,9.5-15.8,20-14.7s17.9,5.3,15.8,15.8c-4.2-2.1-9.5-5.3-11.6-4.2,1.1,2.1,1.1,10.5-4.2,12.6C400.4,220.6,389.9,208,384.7,216.4Z" transform="translate(-13.2 -9.3)"/><path class="cls-1" d="M481.4,189.1l20-4.2s7.4,2.1,12.6,1.1c-1.1-1.1-10.5-3.2-10.5-3.2s8.4-5.3,9.5-9.5c4.2-3.2,18.9,7.4,17.9,11.6S504.5,199.6,481.4,189.1Z" transform="translate(-13.2 -9.3)"/><path class="cls-1" d="M503.5,142.8c1.1,3.2,4.2,8.4-6.3,16.8s-49.4,15.8-81,21-47.3,28.4-46.3,45.2c-1.1,11.6,6.3,25.2,20,25.2,8.6,0,15.8-5.6,16.8-11.6s-2.1-9.5-4.2-10.5c-5.3-2.7-10.5,1.1-11.6,4.2s2.1,6.3,4.2,5.3c3.2-3.2,12.6,1.1,1.1,3.2s-27.3-11.6-17.9-28.4,26.3-18.9,35.8-14.7,18.9,21,22.1,15.8-3.2-11.6-3.2-11.6-1.1-2.1,4.2,1.1,16.8,7.4,28.4,0c-5.3-16.8-30.5-16.8-48.4-12.6,7.4-8.4,34.7-5.3,49.4-4.2,24.1,1.7,40-6.3,48.4-22.1S506.7,139.6,503.5,142.8Zm-44.2,58.9c-6.3-2.1-8.4-6.3-37.9-6.3C422.5,195.4,446.7,188,459.3,201.7Z" transform="translate(-13.2 -9.3)"/><path class="cls-1" d="M304.7,304.7c5.3,2.1,12.6-5.3,12.6-5.3H371s-2.1,8.4-15.8,9.5-63.1,0-63.1,0-15.8-1.1-20,10.5c-8.4-3.2-4.2-9.5-4.2-9.5H19.3v-5.3Z" transform="translate(-13.2 -9.3)"/><path class="cls-1" d="M69.2,288.4v9.5H297.4c9.5,0,13.7-9.5,13.7-9.5Z" transform="translate(-13.2 -9.3)"/><path class="cls-1" d="M19.3,521.8H513c56.8,0,44.4,38,28.5,53.8-5.6,5.6-6.3,14.1-4.2,17.6-9.9.7-13.4-7-13.4-9.9s4.2-4.2,4.9-7c-5.6,1.4-4.2,5.6-12.7,7s-25.4-7-18.3-20.4c3.5-5.6,10.6-5.6,9.9-3.5s-4.2,5.6,1.4,9.9,23.2-.7,28.2-11.3c-2.1,2.1-12.3-.5-7.8-2.8,14.1-7,16-28.2-15.5-28.2H19.3Z" transform="translate(-13.2 -9.3)"/><path class="cls-1" d="M527.7,539.7H19.3v-8.4H515.1C524.6,531.3,527.7,539.7,527.7,539.7Z" transform="translate(-13.2 -9.3)"/><path class="cls-1" d="M13.2,289.5c4.3-.2,12.1,1,22.3,4.8,5.4,2,22.1,4.6,36.8,3.5l-2.8-9.5H63.1c-10-.4-17.1-14.6-15.1-15.2-3.9-2.1-8.2,5.7-6,9.4s6.4,4.8,7.7,5.2c-2.7-.8-18.8-5.9-20.1-13.6s3.3-7.5,7.4-12a4,4,0,0,0-4.1-6.5c-4,1.2,1.1-3.6,11.1-3.3,2.3-7.2-8.2-12.9-8.2-12.9S48,243.5,47,254.8a33.7,33.7,0,0,1-1.9,4.8s6.2,2.6,8.4-1.4,4.4-7.8.9-15.5a18.1,18.1,0,0,0-3.5-5.3c.7,4.6,1,9.2.2,12.9a49.1,49.1,0,0,0-2.8-15c-4.9-3.2-11.5-3.5-17.3-1-8.8,3.7-24.1,30.1-.9,52.9-7.5-3.3-8.1-5.3-8.1-5.3S14.5,282.6,13.2,289.5Zm43,.7c0,.1-1.1-.1-2.7-.8a17.3,17.3,0,0,1-5.5-3.8,9.7,9.7,0,0,1-2.8-6.1c-.1-1.8.4-2.8.5-2.7s0,1.1.3,2.7a10.4,10.4,0,0,0,2.9,5.4,22.8,22.8,0,0,0,5.1,3.8C55.4,289.7,56.3,290.1,56.3,290.3Zm-24.4-4.2a22.4,22.4,0,0,1-5.7-6.4,11.5,11.5,0,0,1-.9-2.1,8.3,8.3,0,0,1-.2-1.1l-.2-1c-.3-1.4-.6-2.7-.8-4.1a47.5,47.5,0,0,1-.7-7.8,24.8,24.8,0,0,1,3-13,15.1,15.1,0,0,1,6.6-6.1c2-.9,3.2-.9,3.2-.8s-1.1.4-2.9,1.4a15.5,15.5,0,0,0-5.9,6.1,24.5,24.5,0,0,0-2.5,12.3c0,.9.1,1.8.2,2.7a9,9,0,0,1,1.7-3.4,13.2,13.2,0,0,1,4.1-3.3c1.2-.6,2-.8,2.1-.7s-.6.6-1.7,1.3a18.9,18.9,0,0,0-3.7,3.3,9.6,9.6,0,0,0-2.1,4.3c-.1.5-.1,1-.2,1.3l.3,2c.2,1.3.5,2.6.8,4l.3,1a7.1,7.1,0,0,0,.2,1,9.8,9.8,0,0,0,.8,1.8,21.4,21.4,0,0,0,5.3,5.9,34,34,0,0,0,6.4,4,39.5,39.5,0,0,0,12.3,3.7,45.4,45.4,0,0,0,8.7.3,16.9,16.9,0,0,1,3.2-.1,9.5,9.5,0,0,1-3.2.8,36.5,36.5,0,0,1-8.9.3,38.2,38.2,0,0,1-12.8-3.5A34.2,34.2,0,0,1,31.9,286.1Z" transform="translate(-13.2 -9.3)"/><path class="cls-1" d="M560.1,128.2c-1.2,4.6-3.1,19.8,1.7,36.8l6.6-2.1s-4.6-19.1-1.5-34.3Z" transform="translate(-13.2 -9.3)"/><path class="cls-1" d="M574.4,130.2c-1.1,4-3.3,17.4-.3,32.6l5.2-1.6s-2.7-17.1.3-30.4Z" transform="translate(-13.2 -9.3)"/><path class="cls-1" d="M586.4,134.6a58,58,0,0,0-.2,23.8l3.8-1.1s-2-12.4.2-22.2Z" transform="translate(-13.2 -9.3)"/><path class="cls-1" d="M547.8,204.5c1.6-4.2-2.1,11.9,12.6,11.9,7-.7,46.3-23.7,56.8-22.4,14.4,1.8,19.6,0,18.2-5.6,3.5.7,4.9,10.5-2.8,10.5s-17.5-2.2-27,1.1c-22.4,7.7-37.5,22.1-45.9,22.8S543.6,215.7,547.8,204.5Z" transform="translate(-13.2 -9.3)"/><path class="cls-1" d="M622.7,99.3s23.9-6,29.6-26.6c4.3-15.5-.6-15.8-1-18.9-4.9-1.5-5-8.3-5.3-13.7-4-2.1-6.4-9.7-2.9-13,1.1-6.1,4.4-12.5,11.3-7.4,10.6,7.8,19.4,42.9-1.2,67.3-15.3,18-34.9,18.8-34.9,18.8Z" transform="translate(-13.2 -9.3)"/><path class="cls-1" d="M628.4,117.1s15.7-17.7,35.7-13.4c15.1,3.2,13.2,7.5,15.7,9.2-.9,4.8,4.8,7.9,9.3,10.5.1,4.3,5.4,9.7,9.8,8.2,5.7,1.8,12.6,1.7,11.3-6.4-2-12.5-28-35.5-57.9-28.6-22.1,5.1-31.4,21.5-31.4,21.5Z" transform="translate(-13.2 -9.3)"/><path class="cls-1" d="M564.3,112.9l15,13.8-18-9.2v.2l-3.9-2.2-2.9-1.4c-9,8.5-14.5,33.1.9,56.8,10.2-1.7,30.4-6.2,40.9-13.4-8.3,10.1-21.4,15.4-37.2,18.7q2,2.6,4.4,5.1a6.8,6.8,0,0,1,2,3.1,20.6,20.6,0,0,0,19.6.5c-4.2,3-12.6,8.1-22.5,4.5a34.6,34.6,0,0,1-4.2,2.3c-6.3,3-5.3,3.7-6.7,7.4-3.8,10.3,2.2,16.3,13.3,13.3s41.4-24.4,59.2-20c14.8,2.3,8.1-10.9,3.6-13.9s14.7-14.7,17.9-40C650.4,100.2,596.6,66.6,564.3,112.9Zm42.5,37a4.1,4.1,0,1,0-1.6-7.9,5.3,5.3,0,1,1-2.2,2.2,4.1,4.1,0,0,0,3.8,5.7Zm-29.1-37c-5.8,0-8.9-.5-7.9-2.1,0,0,13.7-18.9,33.1-17.4-4.7,2.6-20,8.9-20,13.7C588.3,110.2,582,118.1,577.8,112.8Zm-22.3,47.5c-8.4-22.4-.7-32.9-.7-32.9l41.4,20.3C591.3,151.9,563.2,161,555.5,160.3Zm62.1-8.9a10.1,10.1,0,0,1-3.5,4.1,10.8,10.8,0,0,1-9.3,1.7,6.2,6.2,0,0,1-2.5-1.5c-.5-.5-.6-.9-.6-.9s1.2,1,3.3,1.5a10.8,10.8,0,0,0,8.2-1.9,9.6,9.6,0,0,0,3.1-3.5,7.4,7.4,0,0,0,.8-3.7c-.2-2.2-.9-3.5-.7-3.6s1.2,1,1.7,3.5A7.7,7.7,0,0,1,617.6,151.4Z" transform="translate(-13.2 -9.3)"/><path class="cls-1" d="M582.5,63.7c-40.3-9.9-74.3,13.1-76.3,26-1.3,8.4,8,8.9,15.6,7.4,5.9,1.9,11.2-.1,15.4-4.4,7.2.3,10.3-5.4,8.8-10.5,3.2-1.6,1-9.8,21.2-11.8,30.7-3,45.1,15.2,45.1,15.2l7.7,5.5S620,73,582.5,63.7Zm-22.3,2.4A106.3,106.3,0,0,0,549.6,68a25,25,0,0,1-2.5,3.5c-1.8,2.2-3.6,3.8-3.9,3.6s1-2.3,2.8-4.5l2.1-2.3a81.2,81.2,0,0,0-9.7,3L537,72l-.2.4a22.6,22.6,0,0,0-1.7,4.3c-1,3.5-1,6.5-1.4,6.5s-1-3.1,0-6.9a13.3,13.3,0,0,1,1.6-3.7,58,58,0,0,0-8,4.3l-.8.6c-.5,1.4-1.3,3.6-2,6-1.3,4.4-1.9,8.1-2.3,8.1s-.4-3.9,1-8.5a26.6,26.6,0,0,1,1.7-4.4,45.8,45.8,0,0,0-5.3,4.5c-4,4.1-5.8,7.2-6.2,7s.1-1,.8-2.5a29.7,29.7,0,0,1,3.9-5.9,40.4,40.4,0,0,1,7.8-7.1,53.4,53.4,0,0,1,11.4-6A71.5,71.5,0,0,1,560,64.2c5.9-.2,9.6.4,9.5.8S565.9,65.4,560.1,66.2Z" transform="translate(-13.2 -9.3)"/><path class="cls-1" d="M622.6,45.5c-22-35.9-73.5-41.4-89.5-32.3-10.3,5.9-3.6,12.9,4.1,17,2.6,5.7,14,6.3,18.9,2.5,7.4,2.2,16.5,5.2,21,0,4.3,1,7.3-4.7,25.8,7.5,24.6,16.2,20.4,47.5,20.4,47.5l6.3,8.1S638.9,72.1,622.6,45.5Zm-.6,7.2c-.2.1-.9-.9-2.2-2.7a91.1,91.1,0,0,0-5.8-7.2A72.6,72.6,0,0,0,604,33.6a78.8,78.8,0,0,0-10.9-6.8h-.8a57.9,57.9,0,0,0-8.3-.6,41.9,41.9,0,0,0-8.2,1.1c-2.1.5-3.4.8-3.5.6s1.1-.8,3.2-1.6a27.9,27.9,0,0,1,8.4-1.5,30.4,30.4,0,0,1,5.9.5h-.3a101.5,101.5,0,0,0-16.7-6,91.3,91.3,0,0,0-10.4,1,44,44,0,0,0-12.8,3.8c-3.1,1.5-4.6,3.1-4.7,2.9s1.2-2,4.3-3.8a37,37,0,0,1,13.1-4.3,63.9,63.9,0,0,1,6.4-.7c-3-.7-5.8-1.2-8.2-1.6-7.8-1.3-12.6-1.4-12.6-1.8s4.9-.9,12.9-.1a93.7,93.7,0,0,1,30.1,8.1,73.6,73.6,0,0,1,14.7,9.1,63,63,0,0,1,10,10,51.9,51.9,0,0,1,5.3,7.9C621.8,51.4,622.3,52.6,622.1,52.7Z" transform="translate(-13.2 -9.3)"/><path class="cls-1" d="M649.4,111.2s19.6,7.7,16.1,39.3c-2.1,15.4-11.9,29.4-13.3,21.7l-1.4-7.7s-2.1,2.8-4.2.7,4.9-9.8,8.4-16.8-.7-32.9-9.8-34.4C643.1,111.9,649.4,111.2,649.4,111.2Z" transform="translate(-13.2 -9.3)"/><path class="cls-1" d="M604.5,538.2v-7.7c0-3.5,3.3-7.2,6.1-6.8-.6-1.9-2.2-3.8-3.4-2.8s-2.3-2.8-6.2-3.7c-3.9.9-5.1,5.6-6.8,4.2s-2.8.5-3.4,2.3c2.8-.5,6.1,3.3,6.1,6.8v7.7Z" transform="translate(-13.2 -9.3)"/><path class="cls-1" d="M611.2,538.2s1.1-4.9,11.6-6.9c5.3-1.4-2.1-2.8-4.2-2.8,0-.7-3.2,2.1-4.2,3.5s2-5,4.2-5.5c5.3-1.4.8-3.4-1.1-2.8-6.3,2.1-9.5,5.5-9.5,14.5Z" transform="translate(-13.2 -9.3)"/><path class="cls-1" d="M613.3,601.3c4,7.7,8.4,0,8.4,0s4.2,10,6.3,12.1,6.3,4,8.4-6c5.3,3,17.9,2,18.9-3s-7.4-3-11.6-5c-21-6-30.5-34.2-30.5-34.2s3.2,9,8.4,2c1.4-1.8-10.5-12.1-10.5-12.1v-8h-3.2v6C608.1,574.2,610.2,595.3,613.3,601.3Zm-1.1-30.1c.3-.1,1,2.6,2.7,6.7a49.5,49.5,0,0,0,9.2,14.4,44.4,44.4,0,0,0,13.9,9.9c4,1.8,6.7,2.4,6.7,2.6s-2.9.1-7.2-1.5a38.2,38.2,0,0,1-8.2-4.4h0a34.6,34.6,0,0,0,.4,3.7c.4,2.9.9,5.2.6,5.3s-1.2-2.2-1.6-5.1a13.4,13.4,0,0,1-.1-3.9v-.4a39.4,39.4,0,0,1-5.8-5.1,41.7,41.7,0,0,1-6.4-9c.1,1.1,0,3.7.2,6.8s1,7.3.7,7.4-1.4-3.1-1.7-7.3a18.7,18.7,0,0,1,.6-7.3,43.6,43.6,0,0,1-2.4-5.6C612.4,574.1,612.1,571.3,612.3,571.2Z" transform="translate(-13.2 -9.3)"/><path class="cls-1" d="M588.3,538.2s-1.1-4.9-11.6-6.9c-5.3-1.4,2.1-2.8,4.2-2.8,0-.7,3.2,2.1,4.2,3.5s-2-5-4.2-5.5c-5.3-1.4-.8-3.4,1.1-2.8,6.3,2.1,9.5,5.5,9.5,14.5Z" transform="translate(-13.2 -9.3)"/><path class="cls-1" d="M591.4,553.1v-6h-3.2v8s-11.9,10.2-10.5,12.1c5.3,7,8.4-2,8.4-2s-9.5,28.1-30.5,34.2c-4.2,2-12.5.6-11.6,5s13.7,6,18.9,3c2.1,10,6.3,8,8.4,6s6.3-12.1,6.3-12.1,4.4,7.7,8.4,0C589.3,595.3,591.4,574.2,591.4,553.1Zm-5.8,25.3a43.8,43.8,0,0,1-2.4,5.6,18.7,18.7,0,0,1,.6,7.3c-.3,4.2-1.5,7.4-1.7,7.3s.4-3.3.7-7.4.2-5.6.2-6.8a41.6,41.6,0,0,1-6.4,9,39.3,39.3,0,0,1-5.8,5.1v.4a13.3,13.3,0,0,1-.1,3.9c-.4,3-1.4,5.2-1.6,5.1s.2-2.4.6-5.3a34.9,34.9,0,0,0,.4-3.7h0a38.2,38.2,0,0,1-8.2,4.4c-4.3,1.6-7.2,1.8-7.2,1.5s2.7-.7,6.7-2.6a44.4,44.4,0,0,0,13.9-9.9,49.5,49.5,0,0,0,9.2-14.4c1.7-4.1,2.5-6.8,2.7-6.7S587.1,574.1,585.6,578.3Z" transform="translate(-13.2 -9.3)"/><path class="cls-1" d="M591,616.4c2.5-3,3.4,6,9.3,8,5.9-2,7.6-12.1,10.1-9s4.2-1,5-5c-4.2,1-10.9-11.1-10.9-16.1V547h-7.6v47.2c0,5-6.7,17.1-10.9,16.1C586.8,614.3,589.2,618.5,591,616.4Zm4.8-7.3a36.3,36.3,0,0,0,2.2-3.7l1.1-2.3.6-1.3v-.2c-.1-4.7-.1-10-.1-15.6,0-18.6.5-33.7,1.1-33.7s1.1,15.1,1.1,33.7c0,5.8,0,11.2-.1,16l.6,1.9c.3.9.7,1.7,1,2.4a15.6,15.6,0,0,0,2.4,3.7,8.1,8.1,0,0,0,2.3,1.8l1,.5c0,.1-.4.1-1.2-.1a7,7,0,0,1-2.7-1.7,14.4,14.4,0,0,1-2.8-3.8l-.9-1.9c-.2,8.9-.5,14.8-.9,14.8s-.7-6.2-.9-15.6l-1,1.9a27.6,27.6,0,0,1-2.5,3.7c-1.6,2-3,2.8-3.1,2.7S594.4,611.1,595.8,609.1Z" transform="translate(-13.2 -9.3)"/><path class="cls-1" d="M586,543.4a2.6,2.6,0,0,1,2.6-2.6h24.2a2.6,2.6,0,0,1,2.6,2.6h0a2.6,2.6,0,0,1-2.6,2.6H588.6a2.6,2.6,0,0,1-2.6-2.6Z" transform="translate(-13.2 -9.3)"/><path class="cls-1" d="M1003.9,220.1c-2.9,12.2,1.9,22.7,4.4,17.3s13.1-5.1,15.6-14.1,17-22.9,34-14.1c-5-.4-14.7-.9-18.2,3.2-6.8,7.8,2.6,16.5,9.3,14.3s16.4-11.3,22.5-2-1.8,36.3-7.3,39.4c2.1-5.6.9-12.5-2.5-11.4s-.3,15.8-15,26.5a48.2,48.2,0,0,1-32.3,8.9c-.2,1.6,2.1,1,1.6,2.6,30.9,6.7,71.9-30.9,61.9-65.4C1066.1,183.5,1010.6,191.4,1003.9,220.1Z" transform="translate(-13.2 -9.3)"/><path class="cls-1" d="M1095.7,253.4c3.8,2.1,6.5,18.3-6.3,27.6-15.4,11.2-17.6,5.5-12.4,4.3s12.4-4.3,15.4-10.6,2.4-16.1.3-17.1C1088.5,259.7,1088.4,249.4,1095.7,253.4Z" transform="translate(-13.2 -9.3)"/><path class="cls-1" d="M1047,293.8c13.3,1.6,42.5-2.8,49.7-7.1s19.6-7.6,25.9-7.7c4.6-.1-5.4-11.4-9.5-7.1s-10.3,7.4-8.2,5.3c10.3-8.5,16.2-27.3,15.1-34.5s-5.3-7.2-8.3-2c-4.3-10.3-14.7-8.1-18.8-7s-2,8.3,5.4,13.4,8.7,22.8,2.5,28c-24.8,20.9-69.9,15.7-77,15.4s5.2,2.9,12,2.4,16.4-6.3,14.7,1.1C1049.9,296.4,1035.6,292.4,1047,293.8Zm58.6-22.3a32.8,32.8,0,0,0,2.2-15.8,30.1,30.1,0,0,0-5.9-14.8,20.1,20.1,0,0,0-3.4-3.5c-.9-.7-1.5-1-1.4-1.1s.7,0,1.8.6a15.6,15.6,0,0,1,3.9,3.3,28.1,28.1,0,0,1,6.6,14.8l4.4-13.7s-.8,9.2-4.2,14.6a29.6,29.6,0,0,1-.4,8.9,30.8,30.8,0,0,1-2.4,7.2c-1.9,3.9-3.7,5.9-3.8,5.8S1104,275.3,1105.5,271.5Z" transform="translate(-13.2 -9.3)"/><path class="cls-1" d="M936.4,252.2c-4.2-2-8.7,5.4-1.9,6.6s5.9,14,.6,20l.5,5.3s9.5-10.8,7.9-25.9c0,0,1.6-8.3-8.2-13.7A45.1,45.1,0,0,0,936.4,252.2Z" transform="translate(-13.2 -9.3)"/><path class="cls-1" d="M930.8,234c2.5,6,7.6,3.7,10.5,8.5,0,0,12,15.7-.5,38.7,0,0,23.1,9.1,33.4-18.5,3-14.7,14.3-16.4,20.3-19s-8.9-9.2-19.3-.9c-1.9-5.2-5.9-7.6-6.6-7.2s-1.7,4.7-1.5,9.5c-3.2-2.5-11.8,1-7,5.1s9,5.8,5.8,16.9c-3.7,7-10.3,14.4-19.1,11.4,0,0,14.9-30.5-7.6-49.4C934.6,225.7,928.7,229,930.8,234Z" transform="translate(-13.2 -9.3)"/><path class="cls-1" d="M876.9,201.4c-18.3,4.4-24.2,22.7-24.9,33.5.1-.7.2-1.4.3-2.1-3.2,26.1,22.1,57.6,54.8,49.1s9.3-43-7-27.1c-6.3,6.2-4.5,15.5,1.9,20.7a13.4,13.4,0,0,0,4.4-1.5s-10.2-7.8-1.8-15.2,23.8,7.2,4.7,17.1-39.3-7.3-36.3-25c1.5-9.1-13.5-5.3-13.5.6-6.6-9.8,2.5-32,11.2-28.2s16.2-1.9,16.2-1.9-6.5-4.7-5.9-11.8c5.2,7.9,13.5,12.2,21,9.5s16.6-6.6,13-14.1l-4.5,1.7C902.1,207.4,892.3,197.7,876.9,201.4Zm18.1,7.1c-10-2.7-25.4-1.9-34.8,7.3,6.1-7,14.9-10.9,24.7-11.2s13.7,3.3,19.3,3.8A19.3,19.3,0,0,1,895,208.5Z" transform="translate(-13.2 -9.3)"/><path class="cls-1" d="M882,297.4c-14.7-5.3-38.9-25.2-42.1-58.9-.6-6.4-4.2-15.8-6.3-17.9,1.1,6.3,1.1,16.8-3.2,21,0,5.3,10.5,44.2,35.8,55.7Z" transform="translate(-13.2 -9.3)"/><path class="cls-1" d="M821,252.1s-10.5,4.2-20-2.1c-1.1,4.2,34.7,15.8,33.7,22.1-2.1-1.1-2.1-2.1-6.3-2.1,1.1,3.2-7.4,13.7-10.5,15.8,4.2,0,22.1,8.4,25.2,11.6h15.8l-14.7-3.2s-12.6-10.5-15.8-11.6c4.2-5.3,7.4-9.5,11.6-8.4-2.1-2.1-4.2-7.4-4.2-7.4S823.1,260.6,821,252.1Z" transform="translate(-13.2 -9.3)"/><path class="cls-1" d="M816.8,216.4c0-5.3-9.5-15.8-20-14.7s-17.9,5.3-15.8,15.8c4.2-2.1,9.5-5.3,11.6-4.2-1.1,2.1-1.1,10.5,4.2,12.6C801,220.6,811.5,208,816.8,216.4Z" transform="translate(-13.2 -9.3)"/><path class="cls-1" d="M720,189.1l-20-4.2s-7.4,2.1-12.6,1.1c1.1-1.1,10.5-3.2,10.5-3.2s-8.4-5.3-9.5-9.5c-4.2-3.2-18.9,7.4-17.9,11.6S696.9,199.6,720,189.1Z" transform="translate(-13.2 -9.3)"/><path class="cls-1" d="M686.4,164.9c8.4,15.8,24.2,23.8,48.4,22.1,14.7-1.1,42.1-4.2,49.4,4.2-17.9-4.2-43.1-4.2-48.4,12.6,11.6,7.4,23.1,3.2,28.4,0s4.2-1.1,4.2-1.1-6.3,6.3-3.2,11.6,12.6-11.6,22.1-15.8,26.3-2.1,35.8,14.7-6.3,30.5-17.9,28.4-2.1-6.3,1.1-3.2c2.1,1.1,5.3-2.1,4.2-5.3s-6.2-6.9-11.6-4.2c-2.1,1.1-5.3,4.2-4.2,10.5s8.2,11.6,16.8,11.6c13.7,0,21-13.7,20-25.2,1.1-16.8-14.7-40-46.3-45.2s-69.3-11.7-81-21-7.4-13.7-6.3-16.8C694.8,139.6,678,149.1,686.4,164.9ZM780,195.4c-29.4,0-31.5,4.2-37.9,6.3C754.7,188,778.9,195.4,780,195.4Z" transform="translate(-13.2 -9.3)"/><path class="cls-1" d="M896.7,304.7c-5.3,2.1-12.6-5.3-12.6-5.3H830.5s2.1,8.4,15.8,9.5,63.1,0,63.1,0,15.8-1.1,20,10.5c8.4-3.2,4.2-9.5,4.2-9.5h248.7v-5.3Z" transform="translate(-13.2 -9.3)"/><path class="cls-1" d="M1132.2,288.4v9.5H904c-9.5,0-13.7-9.5-13.7-9.5Z" transform="translate(-13.2 -9.3)"/><path class="cls-1" d="M1182.2,521.8H688.4c-56.8,0-44.4,38-28.5,53.8,5.6,5.6,6.3,14.1,4.2,17.6,9.9.7,13.4-7,13.4-9.9s-4.2-4.2-4.9-7c5.6,1.4,4.2,5.6,12.7,7s25.4-7,18.3-20.4c-3.5-5.6-10.6-5.6-9.9-3.5s4.2,5.6-1.4,9.9-23.3-.7-28.2-11.3c2.1,2.1,12.3-.5,7.8-2.8-14.1-7-16-28.2,15.5-28.2h494.8Z" transform="translate(-13.2 -9.3)"/><path class="cls-1" d="M673.7,539.7h508.4v-8.4H686.3C676.9,531.3,673.7,539.7,673.7,539.7Z" transform="translate(-13.2 -9.3)"/><path class="cls-1" d="M1179.4,281.8s-.6,2-8.1,5.3c23.1-22.8,7.9-49.2-.9-52.9-5.8-2.4-12.3-2.2-17.3,1a49.1,49.1,0,0,0-2.8,15c-.8-3.6-.6-8.3.2-12.9a18.1,18.1,0,0,0-3.5,5.3c-3.4,7.7-1.3,11.4.9,15.5s8.4,1.4,8.4,1.4a33.7,33.7,0,0,1-1.9-4.8c-1.1-11.3,11.1-15.4,11.1-15.4s-10.4,5.7-8.2,12.9c10-.4,15.1,4.4,11.1,3.3a4,4,0,0,0-4.1,6.5c4.2,4.5,8.8,3.7,7.4,12s-17.3,12.8-20.1,13.6c1.4-.4,5.9-2,7.7-5.2s-2.1-11.6-6-9.4c2,.6-5.1,14.9-15.1,15.2h-6.5l-2.8,9.5c14.7,1,31.3-1.5,36.8-3.5,10.2-3.7,18-4.9,22.3-4.8C1187,282.6,1179.4,281.8,1179.4,281.8Zm-31.9,7a22.8,22.8,0,0,0,5.1-3.8,10.4,10.4,0,0,0,2.9-5.4c.3-1.6.1-2.6.3-2.7s.6,1,.5,2.7a9.7,9.7,0,0,1-2.8,6.1,17.3,17.3,0,0,1-5.5,3.8c-1.6.7-2.6.9-2.7.8S1146.1,289.7,1147.5,288.9Zm15.3,1.4a38.2,38.2,0,0,1-12.8,3.5,36.5,36.5,0,0,1-8.9-.3,9.5,9.5,0,0,1-3.2-.8,16.9,16.9,0,0,1,3.2.1,45.4,45.4,0,0,0,8.7-.3,39.5,39.5,0,0,0,12.3-3.7,34,34,0,0,0,6.4-4,21.4,21.4,0,0,0,5.3-5.9,9.9,9.9,0,0,0,.8-1.8,7.1,7.1,0,0,0,.2-1l.3-1c.3-1.3.6-2.7.8-4l.3-2c0-.3-.1-.8-.2-1.3a9.6,9.6,0,0,0-2.1-4.3,18.9,18.9,0,0,0-3.7-3.3c-1-.7-1.7-1.2-1.7-1.3s.9.1,2.1.7a13.2,13.2,0,0,1,4.1,3.3,9,9,0,0,1,1.7,3.4c.1-.9.1-1.8.2-2.7a24.5,24.5,0,0,0-2.5-12.3,15.5,15.5,0,0,0-5.9-6.1c-1.8-1-2.9-1.3-2.9-1.4s1.2-.1,3.2.8a15.1,15.1,0,0,1,6.6,6.1,24.8,24.8,0,0,1,3,13,47.6,47.6,0,0,1-.7,7.8c-.2,1.3-.5,2.7-.8,4.1l-.2,1a8,8,0,0,1-.2,1.1,11.4,11.4,0,0,1-.9,2.1,22.4,22.4,0,0,1-5.7,6.4A34.3,34.3,0,0,1,1162.8,290.3Z" transform="translate(-13.2 -9.3)"/><path class="cls-1" d="M197.5,220.1c2.9,12.2-1.9,22.7-4.4,17.3s-13.1-5.1-15.6-14.1-17-22.9-34-14.1c5-.4,14.7-.9,18.2,3.2,6.8,7.8-2.6,16.5-9.3,14.3s-16.4-11.3-22.5-2,1.8,36.3,7.3,39.4c-2.1-5.6-.9-12.5,2.5-11.4s.3,15.8,15,26.5a48.2,48.2,0,0,0,32.3,8.9c.2,1.6-2.1,1-1.6,2.6-30.9,6.7-71.9-30.9-61.9-65.4C135.4,183.5,190.8,191.4,197.5,220.1Z" transform="translate(-13.2 -9.3)"/><path class="cls-1" d="M105.8,253.4c-3.8,2.1-6.5,18.3,6.3,27.6,15.4,11.2,17.6,5.5,12.4,4.3s-12.4-4.3-15.4-10.6-2.4-16.1-.3-17.1C112.9,259.7,113.1,249.4,105.8,253.4Z" transform="translate(-13.2 -9.3)"/><path class="cls-1" d="M151.1,294.1c-1.7-7.4,9.5-1.5,14.7-1.1s19.5-2.8,12-2.4-52.2,5.6-77-15.4c-6.2-5.2-4.9-22.9,2.5-28s9.5-12.3,5.4-13.4-14.5-3.3-18.8,7c-3-5.2-7.2-5.3-8.3,2s4.8,26,15.1,34.5c2,2.1-4.1-1.1-8.2-5.3s-14.1,7.1-9.5,7.1c6.2.1,19.4,3.8,25.9,7.7s36.4,8.7,49.7,7.1C165.9,292.4,151.6,296.4,151.1,294.1ZM98.7,277.7c-.2.1-1.9-1.9-3.8-5.8a30.8,30.8,0,0,1-2.4-7.2,29.6,29.6,0,0,1-.4-8.9c-3.5-5.5-4.2-14.6-4.2-14.6l4.4,13.7a28.1,28.1,0,0,1,6.6-14.8,15.5,15.5,0,0,1,3.9-3.3c1.1-.6,1.8-.7,1.8-.6s-.5.4-1.4,1.1a20.1,20.1,0,0,0-3.4,3.5,30.1,30.1,0,0,0-5.9,14.8,32.8,32.8,0,0,0,2.2,15.8C97.5,275.3,98.9,277.6,98.7,277.7Z" transform="translate(-13.2 -9.3)"/><path class="cls-1" d="M265,252.2c4.2-2,8.7,5.4,1.9,6.6s-5.9,14-.6,20l-.5,5.3s-9.5-10.8-7.8-25.9c0,0-1.6-8.3,8.2-13.7A45.1,45.1,0,0,1,265,252.2Z" transform="translate(-13.2 -9.3)"/><path class="cls-1" d="M270.6,234c-2.5,6-7.6,3.7-10.5,8.5,0,0-12,15.7.5,38.7,0,0-23.1,9.1-33.4-18.5-3-14.7-14.3-16.4-20.3-19s8.9-9.2,19.3-.9c1.9-5.2,5.9-7.6,6.6-7.2s1.7,4.7,1.5,9.5c3.2-2.5,11.8,1,7,5.1s-9,5.8-5.8,16.9c3.7,7,10.3,14.4,19.1,11.4,0,0-14.9-30.5,7.6-49.4C266.8,225.7,272.7,229,270.6,234Z" transform="translate(-13.2 -9.3)"/><path class="cls-1" d="M291.1,206.6l-4.5-1.7c-3.7,7.5,5.4,11.4,13,14.1s15.8-1.6,21-9.5c.6,7.1-5.9,11.8-5.9,11.8s7.5,5.6,16.2,1.9,17.8,18.5,11.2,28.2c0-5.9-15.1-9.7-13.5-.6,3,17.6-17.3,34.8-36.3,25s-2.8-23.7,4.7-17.1-1.8,15.2-1.8,15.2a13.4,13.4,0,0,0,4.4,1.5c6.4-5.1,8.2-14.5,1.9-20.7-16.4-15.9-40.2,18.4-7,27.1s57.9-22.9,54.8-49.1c.1.7.2,1.4.3,2.1-.7-10.8-6.6-29.1-24.9-33.5C309.1,197.7,299.4,207.4,291.1,206.6Zm6.2,1.9c5.6-.5,10.9-4.1,19.3-3.8s18.6,4.2,24.7,11.2c-9.4-9.2-24.8-10-34.8-7.3A19.3,19.3,0,0,1,297.3,208.4Z" transform="translate(-13.2 -9.3)"/><path class="cls-1" d="M319.5,297.4c14.7-5.3,38.9-25.2,42.1-58.9.6-6.4,4.2-15.8,6.3-17.9-1.1,6.3-1.1,16.8,3.2,21,0,5.3-10.5,44.2-35.8,55.7Z" transform="translate(-13.2 -9.3)"/><path class="cls-1" d="M380.5,252.1s10.5,4.2,20-2.1c1.1,4.2-34.7,15.8-33.7,22.1,2.1-1.1,2.1-2.1,6.3-2.1-1.1,3.2,7.4,13.7,10.5,15.8-4.2,0-22.1,8.4-25.2,11.6H342.6l14.7-3.2s12.6-10.5,15.8-11.6c-4.2-5.3-7.4-9.5-11.6-8.4,2.1-2.1,4.2-7.4,4.2-7.4S378.4,260.6,380.5,252.1Z" transform="translate(-13.2 -9.3)"/><path class="cls-1" d="M384.7,216.4c0-5.3,9.5-15.8,20-14.7s17.9,5.3,15.8,15.8c-4.2-2.1-9.5-5.3-11.6-4.2,1.1,2.1,1.1,10.5-4.2,12.6C400.4,220.6,389.9,208,384.7,216.4Z" transform="translate(-13.2 -9.3)"/><path class="cls-1" d="M481.4,189.1l20-4.2s7.4,2.1,12.6,1.1c-1.1-1.1-10.5-3.2-10.5-3.2s8.4-5.3,9.5-9.5c4.2-3.2,18.9,7.4,17.9,11.6S504.5,199.6,481.4,189.1Z" transform="translate(-13.2 -9.3)"/><path class="cls-1" d="M503.5,142.8c1.1,3.2,4.2,8.4-6.3,16.8s-49.4,15.8-81,21-47.3,28.4-46.3,45.2c-1.1,11.6,6.3,25.2,20,25.2,8.6,0,15.8-5.6,16.8-11.6s-2.1-9.5-4.2-10.5c-5.3-2.7-10.5,1.1-11.6,4.2s2.1,6.3,4.2,5.3c3.2-3.2,12.6,1.1,1.1,3.2s-27.3-11.6-17.9-28.4,26.3-18.9,35.8-14.7,18.9,21,22.1,15.8-3.2-11.6-3.2-11.6-1.1-2.1,4.2,1.1,16.8,7.4,28.4,0c-5.3-16.8-30.5-16.8-48.4-12.6,7.4-8.4,34.7-5.3,49.4-4.2,24.1,1.7,40-6.3,48.4-22.1S506.7,139.6,503.5,142.8Zm-44.2,58.9c-6.3-2.1-8.4-6.3-37.9-6.3C422.5,195.4,446.7,188,459.3,201.7Z" transform="translate(-13.2 -9.3)"/><path class="cls-1" d="M304.7,304.7c5.3,2.1,12.6-5.3,12.6-5.3H371s-2.1,8.4-15.8,9.5-63.1,0-63.1,0-15.8-1.1-20,10.5c-8.4-3.2-4.2-9.5-4.2-9.5H19.3v-5.3Z" transform="translate(-13.2 -9.3)"/><path class="cls-1" d="M69.2,288.4v9.5H297.4c9.5,0,13.7-9.5,13.7-9.5Z" transform="translate(-13.2 -9.3)"/><path class="cls-1" d="M19.3,521.8H513c56.8,0,44.4,38,28.5,53.8-5.6,5.6-6.3,14.1-4.2,17.6-9.9.7-13.4-7-13.4-9.9s4.2-4.2,4.9-7c-5.6,1.4-4.2,5.6-12.7,7s-25.4-7-18.3-20.4c3.5-5.6,10.6-5.6,9.9-3.5s-4.2,5.6,1.4,9.9,23.2-.7,28.2-11.3c-2.1,2.1-12.3-.5-7.8-2.8,14.1-7,16-28.2-15.5-28.2H19.3Z" transform="translate(-13.2 -9.3)"/><path class="cls-1" d="M527.7,539.7H19.3v-8.4H515.1C524.6,531.3,527.7,539.7,527.7,539.7Z" transform="translate(-13.2 -9.3)"/><path class="cls-1" d="M13.2,289.5c4.3-.2,12.1,1,22.3,4.8,5.4,2,22.1,4.6,36.8,3.5l-2.8-9.5H63.1c-10-.4-17.1-14.6-15.1-15.2-3.9-2.1-8.2,5.7-6,9.4s6.4,4.8,7.7,5.2c-2.7-.8-18.8-5.9-20.1-13.6s3.3-7.5,7.4-12a4,4,0,0,0-4.1-6.5c-4,1.2,1.1-3.6,11.1-3.3,2.3-7.2-8.2-12.9-8.2-12.9S48,243.5,47,254.8a33.7,33.7,0,0,1-1.9,4.8s6.2,2.6,8.4-1.4,4.4-7.8.9-15.5a18.1,18.1,0,0,0-3.5-5.3c.7,4.6,1,9.2.2,12.9a49.1,49.1,0,0,0-2.8-15c-4.9-3.2-11.5-3.5-17.3-1-8.8,3.7-24.1,30.1-.9,52.9-7.5-3.3-8.1-5.3-8.1-5.3S14.5,282.6,13.2,289.5Zm43,.7c0,.1-1.1-.1-2.7-.8a17.3,17.3,0,0,1-5.5-3.8,9.7,9.7,0,0,1-2.8-6.1c-.1-1.8.4-2.8.5-2.7s0,1.1.3,2.7a10.4,10.4,0,0,0,2.9,5.4,22.8,22.8,0,0,0,5.1,3.8C55.4,289.7,56.3,290.1,56.3,290.3Zm-24.4-4.2a22.4,22.4,0,0,1-5.7-6.4,11.5,11.5,0,0,1-.9-2.1,8.3,8.3,0,0,1-.2-1.1l-.2-1c-.3-1.4-.6-2.7-.8-4.1a47.5,47.5,0,0,1-.7-7.8,24.8,24.8,0,0,1,3-13,15.1,15.1,0,0,1,6.6-6.1c2-.9,3.2-.9,3.2-.8s-1.1.4-2.9,1.4a15.5,15.5,0,0,0-5.9,6.1,24.5,24.5,0,0,0-2.5,12.3c0,.9.1,1.8.2,2.7a9,9,0,0,1,1.7-3.4,13.2,13.2,0,0,1,4.1-3.3c1.2-.6,2-.8,2.1-.7s-.6.6-1.7,1.3a18.9,18.9,0,0,0-3.7,3.3,9.6,9.6,0,0,0-2.1,4.3c-.1.5-.1,1-.2,1.3l.3,2c.2,1.3.5,2.6.8,4l.3,1a7.1,7.1,0,0,0,.2,1,9.8,9.8,0,0,0,.8,1.8,21.4,21.4,0,0,0,5.3,5.9,34,34,0,0,0,6.4,4,39.5,39.5,0,0,0,12.3,3.7,45.4,45.4,0,0,0,8.7.3,16.9,16.9,0,0,1,3.2-.1,9.5,9.5,0,0,1-3.2.8,36.5,36.5,0,0,1-8.9.3,38.2,38.2,0,0,1-12.8-3.5A34.2,34.2,0,0,1,31.9,286.1Z" transform="translate(-13.2 -9.3)"/><path class="cls-1" d="M560.1,128.2c-1.2,4.6-3.1,19.8,1.7,36.8l6.6-2.1s-4.6-19.1-1.5-34.3Z" transform="translate(-13.2 -9.3)"/><path class="cls-1" d="M574.4,130.2c-1.1,4-3.3,17.4-.3,32.6l5.2-1.6s-2.7-17.1.3-30.4Z" transform="translate(-13.2 -9.3)"/><path class="cls-1" d="M586.4,134.6a58,58,0,0,0-.2,23.8l3.8-1.1s-2-12.4.2-22.2Z" transform="translate(-13.2 -9.3)"/><path class="cls-1" d="M547.8,204.5c1.6-4.2-2.1,11.9,12.6,11.9,7-.7,46.3-23.7,56.8-22.4,14.4,1.8,19.6,0,18.2-5.6,3.5.7,4.9,10.5-2.8,10.5s-17.5-2.2-27,1.1c-22.4,7.7-37.5,22.1-45.9,22.8S543.6,215.7,547.8,204.5Z" transform="translate(-13.2 -9.3)"/><path class="cls-1" d="M622.7,99.3s23.9-6,29.6-26.6c4.3-15.5-.6-15.8-1-18.9-4.9-1.5-5-8.3-5.3-13.7-4-2.1-6.4-9.7-2.9-13,1.1-6.1,4.4-12.5,11.3-7.4,10.6,7.8,19.4,42.9-1.2,67.3-15.3,18-34.9,18.8-34.9,18.8Z" transform="translate(-13.2 -9.3)"/><path class="cls-1" d="M628.4,117.1s15.7-17.7,35.7-13.4c15.1,3.2,13.2,7.5,15.7,9.2-.9,4.8,4.8,7.9,9.3,10.5.1,4.3,5.4,9.7,9.8,8.2,5.7,1.8,12.6,1.7,11.3-6.4-2-12.5-28-35.5-57.9-28.6-22.1,5.1-31.4,21.5-31.4,21.5Z" transform="translate(-13.2 -9.3)"/><path class="cls-1" d="M564.3,112.9l15,13.8-18-9.2v.2l-3.9-2.2-2.9-1.4c-9,8.5-14.5,33.1.9,56.8,10.2-1.7,30.4-6.2,40.9-13.4-8.3,10.1-21.4,15.4-37.2,18.7q2,2.6,4.4,5.1a6.8,6.8,0,0,1,2,3.1,20.6,20.6,0,0,0,19.6.5c-4.2,3-12.6,8.1-22.5,4.5a34.6,34.6,0,0,1-4.2,2.3c-6.3,3-5.3,3.7-6.7,7.4-3.8,10.3,2.2,16.3,13.3,13.3s41.4-24.4,59.2-20c14.8,2.3,8.1-10.9,3.6-13.9s14.7-14.7,17.9-40C650.4,100.2,596.6,66.6,564.3,112.9Zm42.5,37a4.1,4.1,0,1,0-1.6-7.9,5.3,5.3,0,1,1-2.2,2.2,4.1,4.1,0,0,0,3.8,5.7Zm-29.1-37c-5.8,0-8.9-.5-7.9-2.1,0,0,13.7-18.9,33.1-17.4-4.7,2.6-20,8.9-20,13.7C588.3,110.2,582,118.1,577.8,112.8Zm-22.3,47.5c-8.4-22.4-.7-32.9-.7-32.9l41.4,20.3C591.3,151.9,563.2,161,555.5,160.3Zm62.1-8.9a10.1,10.1,0,0,1-3.5,4.1,10.8,10.8,0,0,1-9.3,1.7,6.2,6.2,0,0,1-2.5-1.5c-.5-.5-.6-.9-.6-.9s1.2,1,3.3,1.5a10.8,10.8,0,0,0,8.2-1.9,9.6,9.6,0,0,0,3.1-3.5,7.4,7.4,0,0,0,.8-3.7c-.2-2.2-.9-3.5-.7-3.6s1.2,1,1.7,3.5A7.7,7.7,0,0,1,617.6,151.4Z" transform="translate(-13.2 -9.3)"/><path class="cls-1" d="M582.5,63.7c-40.3-9.9-74.3,13.1-76.3,26-1.3,8.4,8,8.9,15.6,7.4,5.9,1.9,11.2-.1,15.4-4.4,7.2.3,10.3-5.4,8.8-10.5,3.2-1.6,1-9.8,21.2-11.8,30.7-3,45.1,15.2,45.1,15.2l7.7,5.5S620,73,582.5,63.7Zm-22.3,2.4A106.3,106.3,0,0,0,549.6,68a25,25,0,0,1-2.5,3.5c-1.8,2.2-3.6,3.8-3.9,3.6s1-2.3,2.8-4.5l2.1-2.3a81.2,81.2,0,0,0-9.7,3L537,72l-.2.4a22.6,22.6,0,0,0-1.7,4.3c-1,3.5-1,6.5-1.4,6.5s-1-3.1,0-6.9a13.3,13.3,0,0,1,1.6-3.7,58,58,0,0,0-8,4.3l-.8.6c-.5,1.4-1.3,3.6-2,6-1.3,4.4-1.9,8.1-2.3,8.1s-.4-3.9,1-8.5a26.6,26.6,0,0,1,1.7-4.4,45.8,45.8,0,0,0-5.3,4.5c-4,4.1-5.8,7.2-6.2,7s.1-1,.8-2.5a29.7,29.7,0,0,1,3.9-5.9,40.4,40.4,0,0,1,7.8-7.1,53.4,53.4,0,0,1,11.4-6A71.5,71.5,0,0,1,560,64.2c5.9-.2,9.6.4,9.5.8S565.9,65.4,560.1,66.2Z" transform="translate(-13.2 -9.3)"/><path class="cls-1" d="M622.6,45.5c-22-35.9-73.5-41.4-89.5-32.3-10.3,5.9-3.6,12.9,4.1,17,2.6,5.7,14,6.3,18.9,2.5,7.4,2.2,16.5,5.2,21,0,4.3,1,7.3-4.7,25.8,7.5,24.6,16.2,20.4,47.5,20.4,47.5l6.3,8.1S638.9,72.1,622.6,45.5Zm-.6,7.2c-.2.1-.9-.9-2.2-2.7a91.1,91.1,0,0,0-5.8-7.2A72.6,72.6,0,0,0,604,33.6a78.8,78.8,0,0,0-10.9-6.8h-.8a57.9,57.9,0,0,0-8.3-.6,41.9,41.9,0,0,0-8.2,1.1c-2.1.5-3.4.8-3.5.6s1.1-.8,3.2-1.6a27.9,27.9,0,0,1,8.4-1.5,30.4,30.4,0,0,1,5.9.5h-.3a101.5,101.5,0,0,0-16.7-6,91.3,91.3,0,0,0-10.4,1,44,44,0,0,0-12.8,3.8c-3.1,1.5-4.6,3.1-4.7,2.9s1.2-2,4.3-3.8a37,37,0,0,1,13.1-4.3,63.9,63.9,0,0,1,6.4-.7c-3-.7-5.8-1.2-8.2-1.6-7.8-1.3-12.6-1.4-12.6-1.8s4.9-.9,12.9-.1a93.7,93.7,0,0,1,30.1,8.1,73.6,73.6,0,0,1,14.7,9.1,63,63,0,0,1,10,10,51.9,51.9,0,0,1,5.3,7.9C621.8,51.4,622.3,52.6,622.1,52.7Z" transform="translate(-13.2 -9.3)"/><path class="cls-1" d="M649.4,111.2s19.6,7.7,16.1,39.3c-2.1,15.4-11.9,29.4-13.3,21.7l-1.4-7.7s-2.1,2.8-4.2.7,4.9-9.8,8.4-16.8-.7-32.9-9.8-34.4C643.1,111.9,649.4,111.2,649.4,111.2Z" transform="translate(-13.2 -9.3)"/></g><path class="cls-2" stroke="#fff" stroke-width="1" d="M366.5,423.1q0,7.6-7.7,12.2-2.2,3.5-5.8,3.4-6.3-.1-13.9-5.6t-9.1-9.1q-2.4-4.1-2.4-5.1t1.9-2.9a5,5,0,0,1,2.8-1.6q1,0,1,1.3a5.5,5.5,0,0,1-.2,1.3q2.2,6,9.4,11.3t13,5.2q5.2,0,5.2-7.1,0-3.9-6-15.4t-6-16.6a9.7,9.7,0,0,1,1.8-5.8,26.8,26.8,0,0,1,5.5-5.1,2.3,2.3,0,0,1,1.4-.5q1.1,0,1.1,1a2,2,0,0,1-.8,1.4,9.9,9.9,0,0,0-3.2,7.5q0,4.9,6,16.2T366.5,423.1Zm12.6-38.5a35.6,35.6,0,0,1-4.5,10q-1.3,1.9-2.4,1.9t-3.8-1.8-.8-1.1,1.5-1.3,2.5-3.8a15.5,15.5,0,0,0,1.3-5.2q0-2-1.6-2l-1.4.2a50.1,50.1,0,0,0-7.1,2.2l-1.1.2q-1.3,0-1.3-.8t1.3-1.4a78.8,78.8,0,0,1,9.3-3.9,7.1,7.1,0,0,1,2.1-.5q1,0,2.5,2.7l2.9,1a1.8,1.8,0,0,1,.9,1.7A7.5,7.5,0,0,1,379.1,384.5Z" transform="translate(-13.2 -9.3)"/><path class="cls-2" stroke="#fff" stroke-width="1" d="M385.4,407.2a167,167,0,0,1-5.2,18.9,28.8,28.8,0,0,0,3.4-4,.8.8,0,0,1,.6-.4q.7,0,.2,1.2l-3.5,5.8a41.8,41.8,0,0,0-3.7,7.1,1.4,1.4,0,0,1-1.4,1,6.1,6.1,0,0,1-2.7-1q-1.1-.6-1.1-.9a3.3,3.3,0,0,1,.5-1.1q2.3-4,5-13.4a74,74,0,0,0,3-13.5q.1-1.9-.4-1.9t-1.3.9l-2.6,2.4q-1.4,1.3-1.4.1a1.5,1.5,0,0,1,.4-.8,59.4,59.4,0,0,1,4.2-5.2,1.9,1.9,0,0,1,1.3-.7,4.1,4.1,0,0,1,2,.9l2.1.6a2.3,2.3,0,0,1,1,2.2A10.2,10.2,0,0,1,385.4,407.2Zm5.9-18.4a1.4,1.4,0,0,1,.7,1.1q0,1.2-3.6,3.8a5.9,5.9,0,0,1-4.6,1.2,5.5,5.5,0,0,1-2.2-.9l-.4-.5a.5.5,0,0,1-.1-.4h.5a51.5,51.5,0,0,0,5.1-4.8q1-1.1,1.4-1.1T391.3,388.9Z" transform="translate(-13.2 -9.3)"/><path class="cls-2" stroke="#fff" stroke-width="1" d="M440.8,422.4q-2.7,4.1-8.1,14.4a3.4,3.4,0,0,1-.6,1,2.9,2.9,0,0,1-1.8-.2q-2.9-.9-2.9-1.7a3.8,3.8,0,0,1,.4-1.3,117.2,117.2,0,0,0,5.4-15.7q2.2-8.3,2.2-12.8,0-1.5-1-1.5a2.8,2.8,0,0,0-1.7.8q-3.6,2.9-9.2,11.3a75.6,75.6,0,0,0-9.6,18.9,2.5,2.5,0,0,1-.5,1.1q-.3.1-1.2-.2a11,11,0,0,1-2.7-1.4,1.3,1.3,0,0,1-.6-1l.6-1.6a71.7,71.7,0,0,0,5.5-26.7q0-1.3-.8-1.3a2.4,2.4,0,0,0-1.4.7q-4.5,3.8-10,13a85.9,85.9,0,0,0-7.9,16.5q-.7,2-1.4,2t-3.4-1.9-.7-.8.9-1.4a74.5,74.5,0,0,0,3.9-12.6q2.5-10.2,2.1-14.8l-2.1,2.1-2.3,2.2a1.5,1.5,0,0,1-1,.5q-.6,0-.6-.8a1.7,1.7,0,0,1,.5-1.2,46.6,46.6,0,0,0,4.7-5.8q.8-1.2,1.5-1.2t1.8,1.3l2.1.8a1.6,1.6,0,0,1,.9,1.6,3.3,3.3,0,0,1-.1.7,89.6,89.6,0,0,1-3.2,15.1q7.4-13.4,13.8-19a2.6,2.6,0,0,1,1.7-.8,6,6,0,0,1,2.7,1.1,7.4,7.4,0,0,1,2.3,1.3,3.6,3.6,0,0,1,.6,2.4,53.8,53.8,0,0,1-2,15.2q8.2-13,14.9-19.3a2.7,2.7,0,0,1,1.8-.8,5.2,5.2,0,0,1,3.1,1.7q3.3.5,3.1,4a59.1,59.1,0,0,1-4.4,19.6,44.2,44.2,0,0,0,3.3-4.3,1.5,1.5,0,0,1,1.3-.9q.6,0,.6.7A2,2,0,0,1,440.8,422.4Z" transform="translate(-13.2 -9.3)"/><path class="cls-2" stroke="#fff" stroke-width="1" d="M477.4,409.9a51.5,51.5,0,0,1-3.7,15.2q-3,7.6-6,10.4a5,5,0,0,1-3.4,1.6q-1.9,0-6.4-3.1-.9-.6-.9-1.2t1.1-.8l1.3.3,1.4.3q3.1,0,5.5-3.9a43.3,43.3,0,0,0,3.9-9,34.7,34.7,0,0,0,1.9-12.1q-.1-2.4-1.6-2.4t-3.3,1.8A71.2,71.2,0,0,0,448.1,438a110.3,110.3,0,0,0-4.2,19.1q0,.3-1.1,14.6-.2,2.1-1,2.1t-3.1-2.1a3.9,3.9,0,0,1-1.3-3.7q1.8-20.9,10.1-46.6,6.5-20.1,10.3-26,2.3-3.5,4-3.4t6.7,3.1.7.9-1,.6h-1.7q-2.6,0-5.5,4.5a59.4,59.4,0,0,0-4.2,8.6,93.7,93.7,0,0,0-3.7,10,75.3,75.3,0,0,1,14.4-17.3,3.7,3.7,0,0,1,2.3-1.1,7,7,0,0,1,2.3,1.3Q477.8,404.3,477.4,409.9Z" transform="translate(-13.2 -9.3)"/><path class="cls-2" stroke="#fff" stroke-width="1" d="M514.1,370.6a1.2,1.2,0,0,1,.5.9q0,.8-1,.8l-.9-.3a7.4,7.4,0,0,0-2.9-1q-2.6,0-5.8,5.1-11.4,18.6-16.3,48.1-.1.8-.4,2.1l2.9-3.3q1.1-1.3,1.6-1.3t.2,1.3a32.3,32.3,0,0,0-5.3,12.1q-.5,1.6-1.2,1.6l-.9-.4-2.4-1.7a2.9,2.9,0,0,1-.8-2.2,7.9,7.9,0,0,1,.2-1.6q4.9-26.7,12.6-45.6,5.8-14.2,10.4-18.4a3.6,3.6,0,0,1,2.5-1.1,5.8,5.8,0,0,1,2.9,1.4Z" transform="translate(-13.2 -9.3)"/><path class="cls-2" stroke="#fff" stroke-width="1" d="M518.8,423.8q-10.2,13.1-14.4,13.1-2,0-5-2.7t-3.1-3.9a5.8,5.8,0,0,1,.1-1,69.8,69.8,0,0,1,3.1-12.7q-1.6-.8-1.6-1.5t.9-.6a3,3,0,0,1,1.4.4q3.7-8.4,6.7-11.9t3.5-2.4a13.5,13.5,0,0,1,3.5,1.2q-.2-1.3.7-1.5h2q1.8,0,1.8.6v.7a5.2,5.2,0,0,0-.1,1.1q0,1.5,0,3.7t0,3q0,5.2-2.9,7.3a9.8,9.8,0,0,1-5.9,1.9,29.2,29.2,0,0,1-5.7-.9,23.2,23.2,0,0,0-1.6,5.1,32.9,32.9,0,0,0-1.1,8.5q0,2.2,1.4,2.2l1.3-.3q4.9-1.7,13.6-10.5a1.6,1.6,0,0,1,1.1-.5q.8,0,.8.8A1.5,1.5,0,0,1,518.8,423.8Zm-4.9-18.6q0-1.6-.7-1.6a2.7,2.7,0,0,0-1.3.7q-4.1,3.3-7.2,11.6l2.9.3q3.4.1,5.1-1.6a6.1,6.1,0,0,0,1.4-4.2Q513.9,412.6,513.9,405.3Z" transform="translate(-13.2 -9.3)"/><path class="cls-2" stroke="#fff" stroke-width="1" d="M580.2,387.4a47.7,47.7,0,0,1-4.7,12.6q-1.2,2.1-2.4,2.1l-1.1-.2q-3.2-1-3.2-2.3t.9-.9a27.9,27.9,0,0,0,4.4-13.3,6.8,6.8,0,0,0-4.4-2.1q-4.4,0-10.3,7.7a74.4,74.4,0,0,0-9.5,17.1q-4.2,10.3-4,17.2,0,4,2.4,6a5.9,5.9,0,0,0,3.9,1.4,10,10,0,0,0,2.9-.5,36.6,36.6,0,0,0,9.3-4.9,51,51,0,0,0,8.4-7,5,5,0,0,0,1.3-2.9q.1-.9.8-.9t.9.8a17.4,17.4,0,0,1,1.5,5.2,3.8,3.8,0,0,1-1.1,2.6l-3.6,2.9q-8.9,6.7-15.3,8.3a14.7,14.7,0,0,1-3.6.5,6.3,6.3,0,0,1-5.2-2.3q-8.2-3.1-8.2-9.4,0-10.2,5.3-21.8a71.7,71.7,0,0,1,11.3-17.8q6.5-7.3,10.5-7.6a5.4,5.4,0,0,1,3.4,1.2l3.9,3.1q.2-1.7,1.1-1.7t3.4,1.8a3.1,3.1,0,0,1,1.5,2.3A13.9,13.9,0,0,1,580.2,387.4Z" transform="translate(-13.2 -9.3)"/><path class="cls-2" stroke="#fff" stroke-width="1" d="M610.3,407.8a132.2,132.2,0,0,0-5.3,18l1.7-1.8,1.3-1.4a1.6,1.6,0,0,1,1.3-.8.6.6,0,0,1,.6.6,1.7,1.7,0,0,1-.3.9,34,34,0,0,0-5.2,11.8q-.4,1.7-1.1,1.7a6.3,6.3,0,0,1-2.6-1.3,3.2,3.2,0,0,1-1.3-1.3,3.9,3.9,0,0,1,0-1.8,95.9,95.9,0,0,1,4.4-17.7,100.2,100.2,0,0,1-10,13.1q-5.5,6.3-7.9,8a5.6,5.6,0,0,1-2.7,1.2,4.6,4.6,0,0,1-2.3-1.2,4.1,4.1,0,0,1-2.2-3.7,7.6,7.6,0,0,1,.1-1q.8-6.2,5.5-14.5a58.2,58.2,0,0,1,10.8-13.9,5.3,5.3,0,0,1,3.5-1.8q1.5.1,5.8,4a1,1,0,0,1,.4.7q0,.7-.9.7h-.6q-3-1.3-4.8.1-3.9,2.9-8.7,10.2t-6.7,15.1a3.8,3.8,0,0,0,0,.5q0,1.1.8,1t3.4-2A111.7,111.7,0,0,0,597,419.5q5.5-7.2,7.1-10.8t1.5-3.8q.5-1.9,1.2-1.9t2.9,1.7a2.3,2.3,0,0,1,1,1.3A4.2,4.2,0,0,1,610.3,407.8Z" transform="translate(-13.2 -9.3)"/><path class="cls-2" stroke="#fff" stroke-width="1" d="M641.1,404.2a37,37,0,0,1-1.5,10.5q-.5,1.5-1.3,1.5t-2.6-1.7a2,2,0,0,1-.5-2.4,22.1,22.1,0,0,0,1.2-6.1c0-.5-.1-.8-.3-.8s-.9.5-1.6,1.5a79.9,79.9,0,0,0-13.1,25.5q-1.4,4.5-2.4,4.5a18,18,0,0,1-3.3-1.5q-1.4-.7-1-2.8a185.1,185.1,0,0,1,7.1-24.5,48.3,48.3,0,0,0-3.9,4.5,1.1,1.1,0,0,1-.9.5q-.7,0-.7-.6a1.5,1.5,0,0,1,.3-.8q2.1-2.5,5.5-7.6,1-1.8,2.1-1.8a9.2,9.2,0,0,1,3.1,1.2q1.3.7.4,1.8t-3.5,8.6q-2.4,7.2-3.4,11.3a118.8,118.8,0,0,1,13-22.5q1.4-1.8,2.2-1.8a3.9,3.9,0,0,1,2.1,1,5.7,5.7,0,0,1,2.2.5A2.3,2.3,0,0,1,641.1,404.2Z" transform="translate(-13.2 -9.3)"/><path class="cls-2" stroke="#fff" stroke-width="1" d="M693.3,370.6a1.1,1.1,0,0,1,.5.8q0,.8-1,.8l-.8-.2a7.7,7.7,0,0,0-2.9-1q-2.6,0-5.8,5.1-11.5,18.9-16.8,50.2a42.4,42.4,0,0,0,2.9-3.3q1.1-1.3,1.6-1.3t.2,1.3a30.8,30.8,0,0,0-5.3,12.1q-.5,1.6-1.3,1.6a1.7,1.7,0,0,1-.9-.4l-2.4-1.7a2.8,2.8,0,0,1-.8-2.1,8,8,0,0,1,.2-1.7q1.8-9.7,3-14.4a132.5,132.5,0,0,1-9.3,11.8q-5.2,5.9-7.5,7.5a5.8,5.8,0,0,1-2.7,1.2,4.6,4.6,0,0,1-2.3-1.2q-2.7-1.7-2.7-3.9a4.8,4.8,0,0,1,.1-.8q.9-6.3,5.6-14.5a57.9,57.9,0,0,1,10.8-13.9,5.3,5.3,0,0,1,3.5-1.8q1.6.1,5.8,4a1,1,0,0,1,.4.7q0,.7-.9.7h-.6q-2.9-1.3-4.8.1-3.9,2.9-8.7,10.2T644,431.4q-.2,1.6.8,1.6t3.4-2a115.2,115.2,0,0,0,10-11.5q5.5-7.2,7.1-10.8a28.1,28.1,0,0,0,1.4-3.9,158,158,0,0,1,9.7-26.4q4.2-8.6,7.4-11.5a3.4,3.4,0,0,1,2.3-1.1,5.6,5.6,0,0,1,3,1.4Z" transform="translate(-13.2 -9.3)"/><path class="cls-2" stroke="#fff" stroke-width="1" d="M740.6,406.8q1.3.5,1.3,1.5t-1.7,1.3q-2.9.5-3.6,1.6a29.6,29.6,0,0,0-1.3,4.9,182.3,182.3,0,0,1-8.1,27.7q-1.5,3.7-4.1,3.7t-8.9-4.2a1.2,1.2,0,0,1-.7-1q0-.9,1.2-.9l1.6.4a5.3,5.3,0,0,0,1.8.4q2.1,0,3.9-2.7,4.3-6.5,9.2-24.5a79.5,79.5,0,0,1-11.6,10.9q-8.6,6.6-14,6.6a6.5,6.5,0,0,1-5.1-2.2,17.7,17.7,0,0,1-4.7-3.7,8.1,8.1,0,0,1-1.7-5.7q.5-9,6.8-19.6a73.6,73.6,0,0,1,13-16.2q7.3-6.8,11.5-7,2.1-.1,6.6,3.1.3-2.3,1.2-2.3a8.5,8.5,0,0,1,3,1q.8.4.9.8a12,12,0,0,1-.2,3.9,38.2,38.2,0,0,1-2.5,9.5,1.8,1.8,0,0,1-1.8,1.3l-3.1-.5q-1.5-.3-1.5-1.2t.8-.7h.4a29,29,0,0,0,2-8.5q.2-1.8-2.1-1.8a10.7,10.7,0,0,0-4.8,1.4q-7.9,4.3-15.6,15.1t-9,19.9a15.1,15.1,0,0,0-.3,2.6,7.3,7.3,0,0,0,3.4,6.4,4.1,4.1,0,0,0,2.2.6q4.8,0,13.7-7.3a85.9,85.9,0,0,0,11.5-11.1l-9.6.7a5,5,0,0,1-3.1-.7,6.2,6.2,0,0,1-1.4-2.6,3.2,3.2,0,0,1-.3-1c0-.3.2-.5.5-.5l2.7.9q1.1.4,6.8.1l7.1-.5a2.6,2.6,0,0,1,2.2-1.6A16.4,16.4,0,0,1,740.6,406.8Z" transform="translate(-13.2 -9.3)"/><path class="cls-2" stroke="#fff" stroke-width="1" d="M772.8,407.8a132.2,132.2,0,0,0-5.3,18l1.7-1.8,1.3-1.4a1.6,1.6,0,0,1,1.3-.8.6.6,0,0,1,.6.6,1.7,1.7,0,0,1-.3.9,34,34,0,0,0-5.2,11.8q-.4,1.7-1.1,1.7a6.3,6.3,0,0,1-2.6-1.3,3.2,3.2,0,0,1-1.3-1.3,3.9,3.9,0,0,1,0-1.8,95.9,95.9,0,0,1,4.4-17.7,100.2,100.2,0,0,1-10,13.1q-5.5,6.3-7.9,8a5.6,5.6,0,0,1-2.7,1.2,4.6,4.6,0,0,1-2.3-1.2,4.1,4.1,0,0,1-2.2-3.7,7.6,7.6,0,0,1,.1-1q.8-6.2,5.5-14.5a58.2,58.2,0,0,1,10.8-13.9,5.3,5.3,0,0,1,3.5-1.8q1.5.1,5.8,4a1,1,0,0,1,.4.7q0,.7-.9.7h-.6q-3-1.3-4.8.1-3.9,2.9-8.7,10.2t-6.7,15.1a3.8,3.8,0,0,0,0,.5q0,1.1.8,1t3.4-2a111.7,111.7,0,0,0,10.1-11.5q5.5-7.2,7.1-10.8t1.5-3.8q.5-1.9,1.2-1.9t2.9,1.7a2.3,2.3,0,0,1,1,1.3A4.2,4.2,0,0,1,772.8,407.8Z" transform="translate(-13.2 -9.3)"/><path class="cls-2" stroke="#fff" stroke-width="1" d="M827.9,422.4q-2.7,4.1-8.1,14.4a3.4,3.4,0,0,1-.6,1,2.9,2.9,0,0,1-1.8-.2q-2.9-.9-2.9-1.7a3.8,3.8,0,0,1,.4-1.3,117.2,117.2,0,0,0,5.4-15.7q2.2-8.3,2.2-12.8,0-1.5-1-1.5a2.8,2.8,0,0,0-1.7.8q-3.6,2.9-9.2,11.3a75.6,75.6,0,0,0-9.6,18.9,2.5,2.5,0,0,1-.5,1.1q-.3.1-1.2-.2a11,11,0,0,1-2.7-1.4,1.3,1.3,0,0,1-.6-1l.6-1.6a71.7,71.7,0,0,0,5.5-26.7q0-1.3-.8-1.3a2.4,2.4,0,0,0-1.4.7q-4.5,3.8-10,13a85.9,85.9,0,0,0-7.9,16.5q-.7,2-1.4,2t-3.4-1.9-.7-.8.9-1.4a74.5,74.5,0,0,0,3.9-12.6q2.5-10.2,2.1-14.8l-2.1,2.1-2.3,2.2a1.5,1.5,0,0,1-1,.5q-.6,0-.6-.8a1.7,1.7,0,0,1,.5-1.2,46.6,46.6,0,0,0,4.7-5.8q.8-1.2,1.5-1.2t1.8,1.3l2.1.8a1.6,1.6,0,0,1,.9,1.6,3.3,3.3,0,0,1-.1.7,89.6,89.6,0,0,1-3.2,15.1q7.4-13.4,13.8-19a2.6,2.6,0,0,1,1.7-.8,6,6,0,0,1,2.7,1.1,7.4,7.4,0,0,1,2.3,1.3,3.6,3.6,0,0,1,.6,2.4,53.8,53.8,0,0,1-2,15.2q8.2-13,14.9-19.3a2.7,2.7,0,0,1,1.8-.8,5.2,5.2,0,0,1,3.1,1.7q3.3.5,3.1,4a59.1,59.1,0,0,1-4.4,19.6,44.2,44.2,0,0,0,3.3-4.3,1.5,1.5,0,0,1,1.3-.9q.6,0,.6.7A2,2,0,0,1,827.9,422.4Z" transform="translate(-13.2 -9.3)"/><path class="cls-2" stroke="#fff" stroke-width="1" d="M854.2,423.8q-10.2,13.1-14.4,13.1-2,0-5-2.7t-3.1-3.9a5.8,5.8,0,0,1,.1-1,69.8,69.8,0,0,1,3.1-12.7q-1.6-.8-1.6-1.5t.9-.6a3,3,0,0,1,1.4.4q3.7-8.4,6.7-11.9t3.5-2.4a13.5,13.5,0,0,1,3.5,1.2q-.2-1.3.7-1.5h2q1.8,0,1.8.6v.7a5.2,5.2,0,0,0-.1,1.1q0,1.5,0,3.7t0,3q0,5.2-2.9,7.3a9.8,9.8,0,0,1-5.9,1.9,29.2,29.2,0,0,1-5.7-.9,23.2,23.2,0,0,0-1.6,5.1,32.9,32.9,0,0,0-1.1,8.5q0,2.2,1.4,2.2l1.3-.3q4.9-1.7,13.6-10.5a1.6,1.6,0,0,1,1.1-.5q.8,0,.8.8A1.5,1.5,0,0,1,854.2,423.8Zm-4.9-18.6q0-1.6-.7-1.6a2.7,2.7,0,0,0-1.3.7q-4.1,3.3-7.2,11.6l2.9.3q3.4.1,5.1-1.6a6.1,6.1,0,0,0,1.4-4.2Q849.3,412.6,849.3,405.3Z" transform="translate(-13.2 -9.3)"/><path class="cls-2" stroke="#fff" stroke-width="1" d="M870.7,426.3q.1,5-5.6,6.9a8.3,8.3,0,0,1-1.3,2.4,4.3,4.3,0,0,1-2.9,1.2h-2.6l-6.1-.9a1.4,1.4,0,0,1-1.2-1.2q.2-1.1,2.4-1.3l8.8-1a4.3,4.3,0,0,0,3.1-2.5,5.2,5.2,0,0,0,.5-2.5q0-2.6-2.6-9.3t-2.4-8.7q.3-5.2,9.7-7.3.9-.2.9.7t-.7.8q-4.5,2-4.5,4.9a12.2,12.2,0,0,0,.4,2.8q.4,1.7,2.5,8.2A26.2,26.2,0,0,1,870.7,426.3Zm6.7-24.1a29.2,29.2,0,0,1-1,6,4,4,0,0,1-.8,1.8l-1.4.6-1.9.6q-.6,0-.6-.8a5.9,5.9,0,0,1,.2-1.2,18.2,18.2,0,0,0,.8-5.8q-.2-1.6.9-2a8.5,8.5,0,0,1,2.6-1Q877.4,400.4,877.4,402.2Z" transform="translate(-13.2 -9.3)"/></svg>